**ABCDEFGHIJKLMNOPQRSTUVWXYZabcdefghijklmnopqrstuvwxyz**************************
**PARASOLID !"#$%&'()*+,-./:;<=>?@[\]^_`{|}~0123456789**************************
**PART1;
MC=unknown;
MC_MODEL=unknown;
MC_ID=unknown;
OS=unknown;
OS_RELEASE=unknown;
FRU=Parasolid 29.1.146;
APPL=Onshape;
SITE=unknown;
USER=unknown;
FORMAT=text;
GUISE=transmit;
KEY=BTGapi::writeModels_.xmt;
FILE=BTGapi::writeModels_.xmt;
DATE=2017-01-08T09:26:51 (UTC);
**PART2;
SCH=SCH_2901146_28101;
USFLD_SIZE=0;
**PART3;
**END_OF_HEADER*****************************************************************
T51 : TRANSMIT FILE created by modeller version 290114623 SCH_2901146_28101_1300
6204 0 12 33 CCCCCCI4 mesh1006 0 I8 polyline1008 0 CCCCCCCDI5 owner1040 0 CCCCCC
I13 boundary_mesh1006 0 I17 boundary_polyline1008 0 CCCA16 index_map_offset0 0 1
 dA9 index_map82 0 A17 node_id_index_map82 0 A20 schema_embedding_map82 0 A5 chi
ld12 0 A14 lowest_node_id0 0 1 dZ1 926 2 3 0 0 0 0 0 0 1e3 1e-8 0 4 5 1 0 1 1 6
 7 8 9 0 0 10 11 12 0 0 0 0 0 0 81 255 1 2 907 13 1 14 0 0 0 15 70 11 CI9 list_t
ype0 0 1 uI10 notransmit0 0 1 lCCCDCCDI12 finger_index0 0 1 dI12 finger_block101
2 0 CZ3 0 4 T1 0 0 4 20 1 16 16 13 255 6 132 0 1 0 17 0 0 18 0 51 255 7 510 0 19
 20 0 0 +-.422 .0945 .338 0 0 1 .1 1 0 0 31 255 8 632 0 21 22 0 0 -.15 -.1635 .0
5 0 0 1 1 0 0 .015 29 255 9 453 0 12 23 0 -.422 .1945 .05 19 8 CCCCCCCA5 owner12
 0 Z10 43 0 1 18 0 24 V0 16 255 11 670 25 ?26 0 21 27 0 0 1 18 255 12 450 28 29
 0 30 9 ?1 81 1 28 528 31 12 0 0 32 33 34 17 255 29 0 35 36 37 12 38 39 0 40 +18
 30 446 41 42 12 43 23 ?1 81 1 41 531 31 30 0 0 44 45 46 17 42 0 47 48 40 30 49
 50 0 51 +18 43 437 52 53 30 54 55 ?1 29 23 449 0 30 55 9 -.422 .1945 .338 29 55
 439 0 43 56 23 -.522 -.0945 .15 29 56 435 0 54 57 55 -.522 .0945 .15 18 54 433
 33 58 43 59 56 ?1 29 57 431 0 59 60 56 -.522 .0945 .238 18 59 429 44 61 54 62 5
7 ?1 29 60 428 0 62 63 57 -.522 -.0945 .238 18 62 426 64 65 59 66 60 ?1 29 63 42
0 0 66 67 60 -.422 -.1945 .05 18 66 417 45 68 62 69 63 ?1 29 67 416 0 69 70 63 -
.422 -.1945 .338 18 69 413 71 72 66 73 67 ?1 29 70 240 0 73 74 67 .3133882381855
275 .1945 .338 18 73 236 75 48 69 76 70 ?1 29 74 109 0 76 77 70 .522 .1945 .05 1
8 76 91 78 36 73 79 74 ?1 29 77 110 0 79 80 74 .522 -.1945 .05 18 79 95 81 82 76
 83 77 ?1 29 80 383 0 83 84 77 .3133882381855275 -.1945 .338 18 83 337 85 86 79
 87 80 ?1 29 84 384 0 87 88 80 .522 -.1945 .2620715281817015 18 87 345 89 90 83
 91 84 ?1 29 88 388 0 91 0 84 .522 .194500000000005 .2620715281817015 18 91 343
 92 93 87 0 88 ?1 81 1 92 393 31 91 0 0 75 85 94 17 93 0 95 96 90 91 97 98 0 99
 -15 255 95 366 0 100 101 0 17 96 0 95 100 93 73 99 102 0 103 -17 90 0 95 93 100
 87 104 105 0 97 +17 97 0 106 107 108 87 93 98 0 109 +16 98 330 110 ?97 105 111
 112 0 0 1 17 99 0 47 113 48 91 96 102 0 108 +15 47 116 0 40 114 0 17 113 0 47 4
0 99 76 108 115 0 116 +17 48 0 47 99 42 73 51 117 0 96 +16 102 325 118 ?99 111 1
19 120 0 0 1 17 108 0 106 97 116 91 113 115 0 0 -15 106 118 0 108 121 0 17 116 0
 106 108 107 76 122 123 0 0 -16 115 113 124 ?113 125 117 126 0 0 1 81 1 124 400
 31 115 0 0 127 128 129 16 125 114 128 ?107 130 115 131 0 0 1 16 117 447 132 ?48
 115 133 134 0 0 1 30 255 126 129 0 115 135 131 0 +.522 .1945 .338 0 0 -1 30 135
 104 0 136 137 126 0 +.00655239075422287 .1945 .05 1 0 0 30 131 130 0 125 126 13
8 0 +.522 -.1945 .338 0 0 -1 30 138 423 0 130 131 139 0 +-.422 -.1945 .338 0 0 -
1 16 130 421 140 ?141 142 125 138 0 0 1 30 139 432 0 142 138 143 0 --.522 .1945
 .238 612323399573677e-31 -1 0 16 142 430 144 ?61 145 130 139 0 0 1 30 143 436 0
 145 139 146 0 +-.522 .0945 .05 0 0 -1 16 145 434 147 ?58 148 142 143 0 0 1 30 1
46 440 0 148 143 149 0 --.522 -.0945 .338 0 0 -1 16 148 438 150 ?151 152 145 146
 0 0 1 30 149 443 0 152 146 153 0 +-.522 .0913571403335247 .15 612323399573677e-
31 -1 0 16 152 441 154 ?53 50 148 149 0 0 1 30 153 456 0 50 149 155 0 --.422 .19
45 .338 0 0 -1 16 50 454 156 ?42 39 152 153 0 0 1 30 155 461 0 39 153 157 0 --.4
22 191552815361976e-32 .05 612323399573677e-31 -1 0 16 39 459 158 ?29 159 50 155
 0 0 1 30 157 466 0 159 155 160 0 +-.422 -.1945 .338 612323399573677e-31 -1 0 16
 159 464 161 ?72 21 39 157 0 0 1 32 255 160 517 0 162 157 163 0 +-.422 -.0945 .1
5 4329780281177465e-32 -.707106781186548 .707106781186548 4329780281177465e-32 -
.707106781186548 -.707106781186548 .1414213562373094 .1 16 162 501 164 ?68 165 1
66 160 0 0 1 32 163 516 0 165 160 167 0 --.422 -.0945 .238 -4329780281177465e-32
 .707106781186548 .707106781186548 -4329780281177465e-32 .707106781186548 -.7071
06781186548 .1414213562373094 .1 16 165 499 168 ?65 169 162 163 0 0 1 32 167 515
 0 169 163 22 0 +-.422 .0945 .15 4329780281177465e-32 -.707106781186548 -.707106
781186548 4329780281177465e-32 -.707106781186548 .707106781186548 .1414213562373
094 .1 16 169 496 170 ?171 119 165 167 0 0 1 32 22 514 0 119 167 8 0 --.422 .094
5 .238 -4329780281177465e-32 .707106781186548 -.707106781186548 -432978028117746
5e-32 .707106781186548 .707106781186548 .1414213562373094 .1 16 119 493 172 ?173
 102 169 22 0 0 1 81 1 172 537 31 119 0 0 170 147 174 17 173 0 175 176 177 59 17
8 119 0 0 +15 175 483 0 173 179 0 17 176 0 175 180 173 62 61 142 0 151 -17 177 0
 175 173 180 30 72 159 0 0 -17 178 0 181 49 182 30 173 119 0 177 -15 181 481 0 1
83 19 0 17 49 0 181 183 178 12 42 50 0 171 -17 182 0 181 178 183 59 58 145 0 173
 -17 183 0 181 182 49 54 171 169 0 184 -17 58 0 185 53 61 54 182 145 0 183 +15 1
85 427 0 58 186 0 17 53 0 185 151 58 43 184 152 0 187 +17 61 0 185 58 151 59 176
 142 0 182 +17 151 0 185 61 53 62 187 148 0 0 +17 187 0 188 68 65 43 151 148 0 1
89 -15 188 487 0 65 190 0 17 68 0 188 191 187 66 189 162 0 38 +17 65 0 188 187 1
91 62 180 165 0 176 +17 189 0 192 184 38 43 68 162 0 0 -15 192 485 0 171 193 0 1
7 184 0 192 171 189 54 53 152 0 0 -17 38 0 192 189 171 66 29 39 0 141 -17 171 0
 192 38 184 12 183 169 0 0 +17 141 0 194 82 195 66 191 130 0 37 +15 194 267 0 19
5 17 0 17 82 0 194 109 141 79 37 196 0 107 +17 195 0 194 141 104 69 86 133 0 180
 -17 191 0 188 65 68 69 141 130 0 0 -17 37 0 35 29 122 66 82 196 0 0 -15 35 70 0
 37 197 0 17 122 0 35 37 36 79 116 123 0 0 +16 196 418 198 ?82 123 105 199 0 0 1
 81 1 198 545 31 196 0 0 200 158 201 16 123 75 202 ?122 136 196 137 0 0 1 16 105
 300 127 ?90 196 98 203 0 0 1 30 199 106 0 196 134 137 0 +.00655239075422287 -.1
945 .05 1 0 0 30 134 19 0 117 204 199 0 +.00655239075422287 .1945 .338 1 0 0 30
 137 105 0 123 199 135 0 +.522 -.003882897086441485 .05 612323399573677e-31 -1 0
 30 204 11 0 133 112 134 0 +.00655239075422287 -.1945 .338 1 0 0 16 133 414 205
 ?86 117 136 204 0 0 1 30 112 375 0 98 206 204 0 +.522 5e2 .2620715281817015 0 -
1 0 30 206 376 0 111 120 112 0 +.3133882381855275 5e2 .338 0 -1 0 16 111 305 207
 ?100 98 102 206 0 0 1 30 120 379 0 102 203 206 0 +.4270271377752925 .1945000000
00005 .29663882309456 .939692620785909 0 -.342020143325669 30 203 381 0 105 208
 120 0 +.4270271377752925 -.1945 .29663882309456 .939692620785908 0 -.3420201433
25669 31 208 667 0 166 27 203 0 +.15 -.1635 0 0 0 -1 1 0 0 .015 16 166 645 209 ?
210 162 211 208 0 0 1 31 27 706 0 11 212 208 0 +-.321 -.1635 .05 0 0 -1 .9986235
70147927 .0524496438978226 0 .015 31 212 707 0 211 213 27 0 +-.321 -.1635 0 0 0
 -1 .998623570147927 .0524496438978226 0 .015 16 211 685 214 ?215 166 216 212 0
 0 1 31 213 746 0 217 218 212 0 +-.321 .1635 .05 0 0 1 .998623570147927 -.052449
6438978227 0 .015 16 217 723 219 ?220 216 221 213 0 0 1 31 218 747 0 216 222 213
 0 +-.321 .1635 0 0 0 1 .998623570147927 -.0524496438978227 0 .015 16 216 720 22
3 ?224 211 217 218 0 0 1 31 222 784 0 225 226 218 0 +.15 .1635 .05 0 0 1 1 -5367
43539815819e-31 0 .015 16 225 761 227 ?228 221 0 222 0 0 1 31 226 785 0 221 0 22
2 0 +.15 .1635 0 0 0 1 1 -536743539815819e-31 0 .015 16 221 758 229 ?230 217 225
 226 0 0 1 81 1 229 760 31 221 0 0 231 232 233 17 230 0 234 230 230 0 235 221 0
 0 +15 234 769 0 230 236 237 17 235 0 238 235 235 0 230 221 0 0 -15 238 774 0 23
5 239 0 14 255 239 771 240 ?0 236 238 6 241 +0 0 0 236 24 81 1 240 926 242 239 2
43 0 244 0 245 14 236 766 244 ?239 246 234 6 247 +0 0 239 246 24 50 255 241 783
 0 239 0 247 0 +.05 277555756156289e-31 0 0 0 -1 1 0 0 13 24 44 0 0 0 0 0 0 10 1
7 14 17 121 248 ?121 0 194 6 249 -0 0 121 0 24 81 1 248 908 242 17 250 0 0 251 2
52 14 121 119 251 ?114 17 106 6 253 +0 0 114 17 24 50 249 126 0 17 253 254 0 +.0
0655239075422287 -.1945 .338 0 1 0 0 0 1 50 253 125 0 121 255 249 0 +.522 -.0038
82897086441485 .338 1 612323399573677e-31 0 -612323399573677e-31 1 0 50 254 127
 0 186 249 256 0 +-.522 .0913571403335247 .338 1 612323399573677e-31 0 -61232339
9573677e-31 1 0 14 186 123 257 ?258 114 185 6 254 -0 0 258 114 24 51 256 513 0 1
90 254 259 0 +-.422 -.0945 .338 0 0 -1 .1 -1 0 0 14 190 486 260 ?261 193 188 6 2
56 +0 0 261 193 24 51 259 512 0 193 256 20 0 +-.422 .0913571403335247 .15 612323
399573677e-31 -1 0 .1 1 612323399573677e-31 0 14 193 484 262 ?190 179 192 6 259
 +0 0 190 179 24 51 20 511 0 179 259 7 0 +-.422 191552815361976e-32 .238 -612323
399573677e-31 1 0 .1 -1 -612323399573677e-31 0 14 179 482 263 ?193 19 175 6 20 +
0 0 193 19 24 81 1 263 916 242 179 264 0 265 262 266 14 19 480 265 ?179 101 181
 6 7 +0 0 179 101 24 81 1 265 915 242 19 267 0 268 263 269 14 101 363 268 ?19 19
7 95 6 270 -0 0 19 197 24 81 1 268 914 242 101 271 0 272 265 273 14 197 63 272 ?
101 258 274 6 275 -0 0 101 258 24 50 270 370 0 101 276 277 0 +.4270271377752925
 5e2 .29663882309456 -.342020143325669 0 -.939692620785908 -.939692620785909 0 .
342020143325669 51 276 663 0 261 278 270 0 -.15 -.1635 0 0 0 1 .015 1 0 0 50 277
 2 0 258 270 275 0 +0 277555756156289e-31 .338 0 0 1 1 0 0 14 258 1 279 ?197 186
 280 6 277 +0 0 197 186 24 50 275 103 0 197 277 255 0 +0 277555756156289e-31 .05
 0 0 1 1 0 0 50 255 124 0 114 275 253 0 +.00655239075422287 .1945 .338 0 1 0 0 0
 1 14 114 117 281 ?186 121 47 6 255 +0 0 186 121 24 81 1 281 910 242 114 282 0 2
51 257 283 80 255 1 242 0 284 8001 0 0 0 0 3 5 0 0 0 FFFFTFTFFFFFFF2 81 1 282 55
8 31 114 0 281 285 286 287 81 1 251 909 242 121 32 0 248 281 288 81 1 257 911 24
2 186 285 0 281 279 289 83 255 3 283 .603921568627451 .647058823529412 .68627450
9803922 81 1 285 557 31 186 0 257 264 282 290 81 1 279 912 242 258 286 0 257 272
 291 83 3 289 .603921568627451 .647058823529412 .686274509803922 81 1 286 559 31
 258 0 279 282 250 292 81 1 272 913 242 197 293 0 279 268 294 83 3 291 .60392156
8627451 .647058823529412 .686274509803922 81 1 293 791 31 197 0 272 227 0 295 83
 3 294 .603921568627451 .647058823529412 .686274509803922 80 1 31 296 297 9000 0
 0 0 0 3 6 0 0 0 FFTFTFTTFFFFFF1 81 1 227 790 31 225 0 0 219 293 298 82 255 3 29
5 15 0 2 81 1 219 789 31 217 0 0 25 227 299 82 3 298 15 3 1 81 1 25 788 31 11 0
 0 300 219 301 82 3 299 15 2 1 81 1 300 787 31 21 0 0 302 25 303 82 3 301 15 1 1
 16 21 629 300 ?304 11 159 8 0 0 1 81 1 302 786 31 1 0 14 243 300 305 82 3 303 1
5 0 1 81 1 14 906 306 1 302 2 0 0 307 81 1 243 773 31 239 0 240 232 302 308 82 3
 305 6 0 3 81 1 232 768 31 236 0 244 229 243 309 82 3 308 14 11 2 81 1 244 925 2
42 236 232 0 310 240 311 82 3 309 14 9 2 81 1 310 924 242 246 231 0 312 244 313
 83 3 311 .603921568627451 .647058823529412 .686274509803922 14 246 733 310 ?236
 314 315 6 316 +0 0 236 314 24 81 1 231 735 31 246 0 310 317 229 318 81 1 312 92
3 242 314 317 0 319 310 320 83 3 313 .603921568627451 .647058823529412 .68627450
9803922 14 314 728 312 ?246 321 322 6 323 +0 0 246 321 24 81 1 317 730 31 314 0
 312 223 231 324 81 1 319 922 242 321 325 0 326 312 327 83 3 320 .60392156862745
1 .647058823529412 .686274509803922 14 321 693 319 ?314 328 329 6 330 +0 0 314 3
28 24 81 1 325 695 31 321 0 319 331 223 332 81 1 326 921 242 328 331 0 333 319 3
34 83 3 327 .603921568627451 .647058823529412 .686274509803922 14 328 688 326 ?3
21 335 336 6 337 -0 0 321 335 24 81 1 331 690 31 328 0 326 214 325 338 81 1 333
 920 242 335 339 0 340 326 341 83 3 334 .603921568627451 .647058823529412 .68627
4509803922 14 335 653 333 ?328 261 342 6 278 +0 0 328 261 24 81 1 339 655 31 335
 0 333 343 214 344 81 1 340 919 242 261 343 0 260 333 345 83 3 341 .603921568627
451 .647058823529412 .686274509803922 14 261 648 340 ?335 190 346 6 276 -0 0 335
 190 24 81 1 343 650 31 261 0 340 209 339 347 81 1 260 918 242 190 348 0 262 340
 349 83 3 345 .603921568627451 .647058823529412 .686274509803922 81 1 348 553 31
 190 0 260 267 350 351 81 1 262 917 242 193 350 0 263 260 352 83 3 349 .60392156
8627451 .647058823529412 .686274509803922 81 1 350 554 31 193 0 262 348 264 353
 83 3 352 .603921568627451 .647058823529412 .686274509803922 81 1 264 555 31 179
 0 263 350 285 354 82 3 353 11 2 2 82 3 354 11 3 2 81 1 267 552 31 19 0 265 205
 348 355 82 3 351 11 1 2 81 1 205 551 31 133 0 0 132 267 356 82 3 355 11 0 2 81
 1 132 550 31 117 0 0 161 205 357 82 3 356 11 15 1 81 1 161 549 31 159 0 0 144 1
32 358 82 3 357 11 14 1 81 1 144 548 31 142 0 0 154 161 359 82 3 358 11 13 1 81
 1 154 547 31 152 0 0 158 144 360 82 3 359 11 12 1 81 1 158 546 31 39 0 0 198 15
4 361 82 3 360 11 11 1 82 3 361 11 10 1 81 1 209 647 31 166 0 0 250 343 362 82 3
 347 14 0 2 81 1 250 560 31 17 0 248 286 209 363 82 3 362 14 1 1 82 3 363 11 8 2
 15 346 651 0 364 261 365 17 364 0 346 364 364 0 210 166 0 0 -15 365 652 0 304 2
61 0 17 304 0 365 304 304 0 366 21 0 0 +17 366 0 367 366 366 0 304 21 0 0 -15 36
7 631 0 366 197 35 17 210 0 342 210 210 0 364 166 0 0 +15 342 656 0 210 335 0 81
 1 214 687 31 211 0 0 339 331 368 82 3 344 14 2 2 82 3 368 14 3 1 50 278 665 0 3
35 337 276 0 +.05 277555756156289e-31 0 0 0 -1 1 0 0 51 337 703 0 328 330 278 0
 --.321 -.1635 0 0 0 1 .015 1 0 0 50 330 705 0 321 323 337 0 +.05 27755575615628
9e-31 0 0 0 -1 1 0 0 51 323 743 0 314 316 330 0 +-.321 .1635 0 0 0 1 .015 1 0 0
 50 316 745 0 246 247 323 0 +.05 277555756156289e-31 0 0 0 -1 1 0 0 51 247 781 0
 236 241 316 0 +.15 .1635 0 0 0 1 .015 1 0 0 82 3 338 14 3 2 15 336 691 0 369 32
8 370 17 369 0 336 369 369 0 215 211 0 0 -15 370 692 0 26 328 0 17 26 0 370 26 2
6 0 371 11 0 0 +17 371 0 372 371 371 0 26 11 0 0 -15 372 672 0 371 197 367 17 21
5 0 329 215 215 0 369 211 0 0 +15 329 696 0 215 321 0 81 1 223 722 31 216 0 0 32
5 317 373 82 3 332 14 5 2 82 3 373 14 5 1 82 3 324 14 6 2 15 322 731 0 224 314 3
74 17 224 0 322 224 224 0 375 216 0 0 +15 374 732 0 376 314 0 17 376 0 374 376 3
76 0 220 217 0 0 -17 220 0 377 220 220 0 376 217 0 0 +15 377 711 0 220 197 372 1
7 375 0 315 375 375 0 224 216 0 0 -15 315 736 0 375 246 0 82 3 318 14 8 2 80 1 3
06 13 378 8038 0 0 0 0 0 0 0 0 0 TTTTTTTTTTTTTF10 98 255 6 307 80 97 114 116 32
 49 79 255 14 378 SDL/TYSA_UNAME79 9 297 BTI/DetId82 3 292 11 7 2 82 3 290 11 5
 2 81 1 32 408 31 121 0 251 271 28 379 83 3 288 .603921568627451 .64705882352941
2 .686274509803922 81 1 271 404 31 101 0 268 128 32 380 82 3 379 10 4 2 81 1 128
 401 31 125 0 0 124 271 381 82 3 380 10 0 2 82 3 381 10 5 1 82 3 287 11 6 2 79 1
5 284 SDL/TYSA_COLOUR15 280 242 0 51 258 0 17 51 0 280 72 103 30 48 117 0 178 -1
7 72 0 280 86 51 69 177 159 0 195 +17 103 0 280 51 86 73 100 111 0 0 -17 86 0 28
0 103 72 83 195 133 0 100 +17 100 0 95 90 96 83 103 111 0 104 +17 104 0 194 195
 109 83 90 105 0 0 -17 109 0 194 104 82 87 107 125 0 0 -17 107 0 106 116 97 79 1
09 125 0 122 +15 274 749 0 228 197 377 17 228 0 274 228 228 0 382 225 0 0 +17 38
2 0 237 382 382 0 228 225 0 0 -15 237 770 0 382 236 0 83 3 273 .603921568627451
 .647058823529412 .686274509803922 83 3 269 .603921568627451 .647058823529412 .6
86274509803922 83 3 266 .603921568627451 .647058823529412 .686274509803922 83 3
 252 .603921568627451 .647058823529412 .686274509803922 83 3 245 .60392156862745
1 .647058823529412 .686274509803922 82 3 233 14 7 1 81 1 207 397 31 111 0 0 118
 110 383 81 1 118 396 31 102 0 0 89 207 384 81 1 110 398 31 98 0 0 207 127 385 8
2 3 383 10 1 1 81 1 127 399 31 105 0 0 110 124 386 82 3 385 10 2 1 82 3 386 10 3
 1 81 1 89 395 31 87 0 0 85 118 387 82 3 384 10 0 1 81 1 85 394 31 83 0 0 92 89
 388 82 3 387 10 3 0 82 3 388 10 2 0 16 136 451 200 ?36 133 123 135 0 0 1 81 1 2
00 544 31 136 0 0 140 198 389 17 36 0 35 122 29 76 40 136 0 113 +17 40 0 47 42 1
13 12 36 136 0 49 -81 1 140 543 31 130 0 0 150 200 390 82 3 389 11 8 1 81 1 150
 542 31 148 0 0 168 140 391 82 3 390 11 7 1 81 1 168 541 31 165 0 0 164 150 392
 82 3 391 11 6 1 81 1 164 540 31 162 0 0 156 168 393 82 3 392 11 5 1 81 1 156 53
9 31 50 0 0 147 164 394 82 3 393 11 4 1 81 1 147 538 31 145 0 0 172 156 395 82 3
 394 11 3 1 82 3 395 11 2 1 81 1 202 165 31 123 0 0 81 75 396 81 1 81 153 31 79
 0 0 78 202 397 81 1 75 392 31 73 0 0 202 92 398 82 3 396 6 10 1 82 3 398 10 0 0
 81 1 78 149 31 76 0 0 0 81 399 82 3 397 6 6 0 82 3 399 6 2 0 82 3 201 11 9 1 17
 180 0 175 177 176 69 65 165 0 191 -81 1 170 536 31 169 0 0 71 172 400 82 3 174
 11 1 1 81 1 71 535 31 69 0 0 64 170 401 82 3 400 11 0 1 81 1 64 534 31 62 0 0 5
2 71 402 82 3 401 11 7 0 81 1 52 533 31 43 0 0 45 64 403 82 3 402 11 6 0 81 1 45
 532 31 66 0 0 41 52 404 82 3 403 11 5 0 82 3 404 11 4 0 82 3 129 10 4 1 82 3 94
 10 1 0 81 1 44 530 31 59 0 0 33 41 405 81 1 33 529 31 54 0 0 28 44 406 82 3 405
 11 2 0 82 3 406 11 1 0 82 3 46 11 3 0 82 3 34 11 0 0 19 18 133 0 1 0 10 6 S0 74
 4 CI16 index_map_offset0 0 1 dCCZ20 16 4 0 0 293 14 2 240 0 0 0 0 0 0 0 0 0 0 0
 0 0 0 0 0 80 1 13 407 408 8017 0 0 0 0 0 0 0 0 0 TTTTTTTTTTTTTF3 84 255 6 15 Pa
rt 179 13 408 SDL/TYSA_NAME1 0 
