solid Onshape
  facet normal 1 0 0
    outer loop
      vertex -0.422 -0.1945 0.338
      vertex -0.422 -0.1945 0.05
      vertex -0.422 0.1945 0.338
    endloop
  endfacet
  facet normal 1 0 0
    outer loop
      vertex -0.422 -0.1945 0.05
      vertex -0.422 0.1945 0.05
      vertex -0.422 0.1945 0.338
    endloop
  endfacet
  facet normal -0.010908 0.999941 0
    outer loop
      vertex -0.422 0.1945 0.338
      vertex -0.422 0.1945 0.05
      vertex -0.424181 0.194476 0.0500238
    endloop
  endfacet
  facet normal -0.010908 0.999941 0
    outer loop
      vertex -0.422 0.1945 0.338
      vertex -0.424181 0.194476 0.0500238
      vertex -0.424181 0.194476 0.337976
    endloop
  endfacet
  facet normal -0.0327172 0.999465 0
    outer loop
      vertex -0.424181 0.194476 0.0500238
      vertex -0.426362 0.194405 0.0500952
      vertex -0.424181 0.194476 0.337976
    endloop
  endfacet
  facet normal -0.0327172 0.999465 0
    outer loop
      vertex -0.424181 0.194476 0.337976
      vertex -0.426362 0.194405 0.0500952
      vertex -0.426362 0.194405 0.337905
    endloop
  endfacet
  facet normal -0.0545129 0.998513 0
    outer loop
      vertex -0.426362 0.194405 0.0500952
      vertex -0.42854 0.194286 0.0502141
      vertex -0.426362 0.194405 0.337905
    endloop
  endfacet
  facet normal -0.0545129 0.998513 0
    outer loop
      vertex -0.426362 0.194405 0.337905
      vertex -0.42854 0.194286 0.0502141
      vertex -0.42854 0.194286 0.337786
    endloop
  endfacet
  facet normal -0.0762886 0.997086 0
    outer loop
      vertex -0.42854 0.194286 0.0502141
      vertex -0.430716 0.194119 0.0503805
      vertex -0.42854 0.194286 0.337786
    endloop
  endfacet
  facet normal -0.0762886 0.997086 0
    outer loop
      vertex -0.42854 0.194286 0.337786
      vertex -0.430716 0.194119 0.0503805
      vertex -0.430716 0.194119 0.337619
    endloop
  endfacet
  facet normal -0.0980145 0.995185 0
    outer loop
      vertex -0.430716 0.194119 0.0503805
      vertex -0.432887 0.193906 0.0505944
      vertex -0.430716 0.194119 0.337619
    endloop
  endfacet
  facet normal -0.0980145 0.995185 0
    outer loop
      vertex -0.430716 0.194119 0.337619
      vertex -0.432887 0.193906 0.0505944
      vertex -0.432887 0.193906 0.337406
    endloop
  endfacet
  facet normal -0.119708 0.992809 0
    outer loop
      vertex -0.432887 0.193906 0.0505944
      vertex -0.435053 0.193644 0.0508555
      vertex -0.432887 0.193906 0.337406
    endloop
  endfacet
  facet normal -0.119708 0.992809 0
    outer loop
      vertex -0.432887 0.193906 0.337406
      vertex -0.435053 0.193644 0.0508555
      vertex -0.435053 0.193644 0.337144
    endloop
  endfacet
  facet normal -0.141333 0.989962 0
    outer loop
      vertex -0.435053 0.193644 0.0508555
      vertex -0.437212 0.193336 0.0511638
      vertex -0.435053 0.193644 0.337144
    endloop
  endfacet
  facet normal -0.141333 0.989962 0
    outer loop
      vertex -0.435053 0.193644 0.337144
      vertex -0.437212 0.193336 0.0511638
      vertex -0.437212 0.193336 0.336836
    endloop
  endfacet
  facet normal -0.16289 0.986644 0
    outer loop
      vertex -0.437212 0.193336 0.0511638
      vertex -0.439365 0.192981 0.0515192
      vertex -0.437212 0.193336 0.336836
    endloop
  endfacet
  facet normal -0.16289 0.986644 0
    outer loop
      vertex -0.437212 0.193336 0.336836
      vertex -0.439365 0.192981 0.0515192
      vertex -0.439365 0.192981 0.336481
    endloop
  endfacet
  facet normal -0.184384 0.982854 0
    outer loop
      vertex -0.439365 0.192981 0.0515192
      vertex -0.441509 0.192579 0.0519215
      vertex -0.439365 0.192981 0.336481
    endloop
  endfacet
  facet normal -0.184384 0.982854 0
    outer loop
      vertex -0.439365 0.192981 0.336481
      vertex -0.441509 0.192579 0.0519215
      vertex -0.441509 0.192579 0.336079
    endloop
  endfacet
  facet normal -0.205778 0.978599 0
    outer loop
      vertex -0.441509 0.192579 0.0519215
      vertex -0.443644 0.19213 0.0523704
      vertex -0.441509 0.192579 0.336079
    endloop
  endfacet
  facet normal -0.205778 0.978599 0
    outer loop
      vertex -0.441509 0.192579 0.336079
      vertex -0.443644 0.19213 0.0523704
      vertex -0.443644 0.19213 0.33563
    endloop
  endfacet
  facet normal -0.227073 0.973878 0
    outer loop
      vertex -0.443644 0.19213 0.0523704
      vertex -0.445769 0.191634 0.0528658
      vertex -0.443644 0.19213 0.33563
    endloop
  endfacet
  facet normal -0.227073 0.973878 0
    outer loop
      vertex -0.443644 0.19213 0.33563
      vertex -0.445769 0.191634 0.0528658
      vertex -0.445769 0.191634 0.335134
    endloop
  endfacet
  facet normal -0.248269 0.968691 0
    outer loop
      vertex -0.445769 0.191634 0.0528658
      vertex -0.447882 0.191093 0.0534074
      vertex -0.445769 0.191634 0.335134
    endloop
  endfacet
  facet normal -0.248269 0.968691 0
    outer loop
      vertex -0.445769 0.191634 0.335134
      vertex -0.447882 0.191093 0.0534074
      vertex -0.447882 0.191093 0.334593
    endloop
  endfacet
  facet normal -0.269339 0.963045 0
    outer loop
      vertex -0.447882 0.191093 0.334593
      vertex -0.447882 0.191093 0.0534074
      vertex -0.449983 0.190505 0.334005
    endloop
  endfacet
  facet normal -0.269339 0.963045 0
    outer loop
      vertex -0.447882 0.191093 0.0534074
      vertex -0.449983 0.190505 0.053995
      vertex -0.449983 0.190505 0.334005
    endloop
  endfacet
  facet normal -0.290282 0.956941 0
    outer loop
      vertex -0.449983 0.190505 0.334005
      vertex -0.449983 0.190505 0.053995
      vertex -0.452071 0.189872 0.333372
    endloop
  endfacet
  facet normal -0.290282 0.956941 0
    outer loop
      vertex -0.449983 0.190505 0.053995
      vertex -0.452071 0.189872 0.0546283
      vertex -0.452071 0.189872 0.333372
    endloop
  endfacet
  facet normal -0.311096 0.950378 0
    outer loop
      vertex -0.452071 0.189872 0.333372
      vertex -0.452071 0.189872 0.0546283
      vertex -0.454144 0.189193 0.332693
    endloop
  endfacet
  facet normal -0.311096 0.950378 0
    outer loop
      vertex -0.452071 0.189872 0.0546283
      vertex -0.454144 0.189193 0.055307
      vertex -0.454144 0.189193 0.332693
    endloop
  endfacet
  facet normal -0.33175 0.943367 0
    outer loop
      vertex -0.454144 0.189193 0.332693
      vertex -0.454144 0.189193 0.055307
      vertex -0.456202 0.188469 0.331969
    endloop
  endfacet
  facet normal -0.33175 0.943367 0
    outer loop
      vertex -0.454144 0.189193 0.055307
      vertex -0.456202 0.188469 0.0560307
      vertex -0.456202 0.188469 0.331969
    endloop
  endfacet
  facet normal -0.352243 0.935909 0
    outer loop
      vertex -0.456202 0.188469 0.0560307
      vertex -0.458244 0.187701 0.0567992
      vertex -0.456202 0.188469 0.331969
    endloop
  endfacet
  facet normal -0.352243 0.935909 0
    outer loop
      vertex -0.456202 0.188469 0.331969
      vertex -0.458244 0.187701 0.0567992
      vertex -0.458244 0.187701 0.331201
    endloop
  endfacet
  facet normal -0.372588 0.927997 0
    outer loop
      vertex -0.458244 0.187701 0.0567992
      vertex -0.460268 0.186888 0.057612
      vertex -0.458244 0.187701 0.331201
    endloop
  endfacet
  facet normal -0.372588 0.927997 0
    outer loop
      vertex -0.458244 0.187701 0.331201
      vertex -0.460268 0.186888 0.057612
      vertex -0.460268 0.186888 0.330388
    endloop
  endfacet
  facet normal -0.392738 0.919651 0
    outer loop
      vertex -0.460268 0.186888 0.057612
      vertex -0.462275 0.186031 0.0584689
      vertex -0.460268 0.186888 0.330388
    endloop
  endfacet
  facet normal -0.392738 0.919651 0
    outer loop
      vertex -0.460268 0.186888 0.330388
      vertex -0.462275 0.186031 0.0584689
      vertex -0.462275 0.186031 0.329531
    endloop
  endfacet
  facet normal -0.412708 0.910863 0
    outer loop
      vertex -0.462275 0.186031 0.0584689
      vertex -0.464262 0.185131 0.0593692
      vertex -0.462275 0.186031 0.329531
    endloop
  endfacet
  facet normal -0.412708 0.910863 0
    outer loop
      vertex -0.462275 0.186031 0.329531
      vertex -0.464262 0.185131 0.0593692
      vertex -0.464262 0.185131 0.328631
    endloop
  endfacet
  facet normal -0.432476 0.901645 0
    outer loop
      vertex -0.464262 0.185131 0.0593692
      vertex -0.466229 0.184187 0.0603127
      vertex -0.464262 0.185131 0.328631
    endloop
  endfacet
  facet normal -0.432476 0.901645 0
    outer loop
      vertex -0.464262 0.185131 0.328631
      vertex -0.466229 0.184187 0.0603127
      vertex -0.466229 0.184187 0.327687
    endloop
  endfacet
  facet normal -0.452043 0.891996 0
    outer loop
      vertex -0.466229 0.184187 0.0603127
      vertex -0.468175 0.183201 0.0612989
      vertex -0.466229 0.184187 0.327687
    endloop
  endfacet
  facet normal -0.452043 0.891996 0
    outer loop
      vertex -0.466229 0.184187 0.327687
      vertex -0.468175 0.183201 0.0612989
      vertex -0.468175 0.183201 0.326701
    endloop
  endfacet
  facet normal -0.471402 0.881918 0
    outer loop
      vertex -0.468175 0.183201 0.326701
      vertex -0.468175 0.183201 0.0612989
      vertex -0.470099 0.182173 0.325673
    endloop
  endfacet
  facet normal -0.471402 0.881918 0
    outer loop
      vertex -0.468175 0.183201 0.0612989
      vertex -0.470099 0.182173 0.0623273
      vertex -0.470099 0.182173 0.325673
    endloop
  endfacet
  facet normal -0.490521 0.871429 0
    outer loop
      vertex -0.470099 0.182173 0.325673
      vertex -0.470099 0.182173 0.0623273
      vertex -0.472 0.181103 0.324603
    endloop
  endfacet
  facet normal -0.490521 0.871429 0
    outer loop
      vertex -0.470099 0.182173 0.0623273
      vertex -0.472 0.181103 0.0633975
      vertex -0.472 0.181103 0.324603
    endloop
  endfacet
  facet normal -0.509416 0.86052 0
    outer loop
      vertex -0.472 0.181103 0.324603
      vertex -0.472 0.181103 0.0633975
      vertex -0.473877 0.179991 0.323491
    endloop
  endfacet
  facet normal -0.509416 0.86052 0
    outer loop
      vertex -0.472 0.181103 0.0633975
      vertex -0.473877 0.179991 0.0645088
      vertex -0.473877 0.179991 0.323491
    endloop
  endfacet
  facet normal -0.528067 0.849203 0
    outer loop
      vertex -0.473877 0.179991 0.323491
      vertex -0.473877 0.179991 0.0645088
      vertex -0.47573 0.178839 0.322339
    endloop
  endfacet
  facet normal -0.528067 0.849203 0
    outer loop
      vertex -0.473877 0.179991 0.0645088
      vertex -0.47573 0.178839 0.0656609
      vertex -0.47573 0.178839 0.322339
    endloop
  endfacet
  facet normal -0.546467 0.83748 0
    outer loop
      vertex -0.47573 0.178839 0.0656609
      vertex -0.477557 0.177647 0.066853
      vertex -0.47573 0.178839 0.322339
    endloop
  endfacet
  facet normal -0.546467 0.83748 0
    outer loop
      vertex -0.47573 0.178839 0.322339
      vertex -0.477557 0.177647 0.066853
      vertex -0.477557 0.177647 0.321147
    endloop
  endfacet
  facet normal -0.564613 0.825356 0
    outer loop
      vertex -0.477557 0.177647 0.066853
      vertex -0.479358 0.176415 0.0680848
      vertex -0.477557 0.177647 0.321147
    endloop
  endfacet
  facet normal -0.564613 0.825356 0
    outer loop
      vertex -0.477557 0.177647 0.321147
      vertex -0.479358 0.176415 0.0680848
      vertex -0.479358 0.176415 0.319915
    endloop
  endfacet
  facet normal -0.582475 0.812848 0
    outer loop
      vertex -0.479358 0.176415 0.0680848
      vertex -0.481131 0.175144 0.0693555
      vertex -0.479358 0.176415 0.319915
    endloop
  endfacet
  facet normal -0.582475 0.812848 0
    outer loop
      vertex -0.479358 0.176415 0.319915
      vertex -0.481131 0.175144 0.0693555
      vertex -0.481131 0.175144 0.318644
    endloop
  endfacet
  facet normal -0.600068 0.799949 0
    outer loop
      vertex -0.481131 0.175144 0.0693555
      vertex -0.482876 0.173835 0.317335
      vertex -0.481131 0.175144 0.318644
    endloop
  endfacet
  facet normal -0.600068 0.799949 0
    outer loop
      vertex -0.481131 0.175144 0.0693555
      vertex -0.482876 0.173835 0.0706647
      vertex -0.482876 0.173835 0.317335
    endloop
  endfacet
  facet normal -0.617381 0.786664 0
    outer loop
      vertex -0.482876 0.173835 0.0706647
      vertex -0.484592 0.172488 0.0720116
      vertex -0.482876 0.173835 0.317335
    endloop
  endfacet
  facet normal -0.617381 0.786664 0
    outer loop
      vertex -0.482876 0.173835 0.317335
      vertex -0.484592 0.172488 0.0720116
      vertex -0.484592 0.172488 0.315988
    endloop
  endfacet
  facet normal -0.634391 0.773012 0
    outer loop
      vertex -0.484592 0.172488 0.0720116
      vertex -0.486279 0.171104 0.314604
      vertex -0.484592 0.172488 0.315988
    endloop
  endfacet
  facet normal -0.634391 0.773012 0
    outer loop
      vertex -0.484592 0.172488 0.0720116
      vertex -0.486279 0.171104 0.0733956
      vertex -0.486279 0.171104 0.314604
    endloop
  endfacet
  facet normal -0.659347 0.751839 0
    outer loop
      vertex -0.486279 0.171104 0.0733956
      vertex -0.489559 0.168228 0.0762723
      vertex -0.486279 0.171104 0.314604
    endloop
  endfacet
  facet normal -0.659347 0.751839 0
    outer loop
      vertex -0.486279 0.171104 0.314604
      vertex -0.489559 0.168228 0.0762723
      vertex -0.489559 0.168228 0.311728
    endloop
  endfacet
  facet normal -0.691513 0.722364 0
    outer loop
      vertex -0.489559 0.168228 0.0762723
      vertex -0.492711 0.165211 0.0792893
      vertex -0.489559 0.168228 0.311728
    endloop
  endfacet
  facet normal -0.691513 0.722364 0
    outer loop
      vertex -0.489559 0.168228 0.311728
      vertex -0.492711 0.165211 0.0792893
      vertex -0.492711 0.165211 0.308711
    endloop
  endfacet
  facet normal -0.722362 0.691515 0
    outer loop
      vertex -0.492711 0.165211 0.0792893
      vertex -0.495728 0.162059 0.082441
      vertex -0.492711 0.165211 0.308711
    endloop
  endfacet
  facet normal -0.722362 0.691515 0
    outer loop
      vertex -0.492711 0.165211 0.308711
      vertex -0.495728 0.162059 0.082441
      vertex -0.495728 0.162059 0.305559
    endloop
  endfacet
  facet normal -0.751842 0.659343 0
    outer loop
      vertex -0.495728 0.162059 0.082441
      vertex -0.498604 0.158779 0.0857212
      vertex -0.495728 0.162059 0.305559
    endloop
  endfacet
  facet normal -0.751842 0.659343 0
    outer loop
      vertex -0.495728 0.162059 0.305559
      vertex -0.498604 0.158779 0.0857212
      vertex -0.498604 0.158779 0.302279
    endloop
  endfacet
  facet normal -0.779886 0.625921 0
    outer loop
      vertex -0.498604 0.158779 0.0857212
      vertex -0.501335 0.155376 0.0891239
      vertex -0.498604 0.158779 0.302279
    endloop
  endfacet
  facet normal -0.779886 0.625921 0
    outer loop
      vertex -0.498604 0.158779 0.302279
      vertex -0.501335 0.155376 0.0891239
      vertex -0.501335 0.155376 0.298876
    endloop
  endfacet
  facet normal -0.806444 0.59131 0
    outer loop
      vertex -0.501335 0.155376 0.0891239
      vertex -0.503915 0.151858 0.0926424
      vertex -0.501335 0.155376 0.298876
    endloop
  endfacet
  facet normal -0.806444 0.59131 0
    outer loop
      vertex -0.501335 0.155376 0.298876
      vertex -0.503915 0.151858 0.0926424
      vertex -0.503915 0.151858 0.295358
    endloop
  endfacet
  facet normal -0.83147 0.55557 0
    outer loop
      vertex -0.503915 0.151858 0.0926424
      vertex -0.506339 0.14823 0.09627
      vertex -0.503915 0.151858 0.295358
    endloop
  endfacet
  facet normal -0.83147 0.55557 0
    outer loop
      vertex -0.503915 0.151858 0.295358
      vertex -0.506339 0.14823 0.09627
      vertex -0.506339 0.14823 0.29173
    endloop
  endfacet
  facet normal -0.854908 0.518779 0
    outer loop
      vertex -0.506339 0.14823 0.09627
      vertex -0.508603 0.1445 0.1
      vertex -0.506339 0.14823 0.29173
    endloop
  endfacet
  facet normal -0.854908 0.518779 0
    outer loop
      vertex -0.506339 0.14823 0.29173
      vertex -0.508603 0.1445 0.1
      vertex -0.508603 0.1445 0.288
    endloop
  endfacet
  facet normal -0.876731 0.480981 0
    outer loop
      vertex -0.508603 0.1445 0.1
      vertex -0.510701 0.140675 0.103825
      vertex -0.508603 0.1445 0.288
    endloop
  endfacet
  facet normal -0.876731 0.480981 0
    outer loop
      vertex -0.508603 0.1445 0.288
      vertex -0.510701 0.140675 0.103825
      vertex -0.510701 0.140675 0.284175
    endloop
  endfacet
  facet normal -0.896872 0.44229 0
    outer loop
      vertex -0.510701 0.140675 0.103825
      vertex -0.512631 0.136762 0.107738
      vertex -0.510701 0.140675 0.284175
    endloop
  endfacet
  facet normal -0.896872 0.44229 0
    outer loop
      vertex -0.510701 0.140675 0.284175
      vertex -0.512631 0.136762 0.107738
      vertex -0.512631 0.136762 0.280262
    endloop
  endfacet
  facet normal -0.915309 0.402753 0
    outer loop
      vertex -0.512631 0.136762 0.107738
      vertex -0.514388 0.132768 0.111732
      vertex -0.512631 0.136762 0.280262
    endloop
  endfacet
  facet normal -0.915309 0.402753 0
    outer loop
      vertex -0.512631 0.136762 0.280262
      vertex -0.514388 0.132768 0.111732
      vertex -0.514388 0.132768 0.276268
    endloop
  endfacet
  facet normal -0.932008 0.362438 0
    outer loop
      vertex -0.514388 0.132768 0.111732
      vertex -0.515969 0.128702 0.115798
      vertex -0.514388 0.132768 0.276268
    endloop
  endfacet
  facet normal -0.932008 0.362438 0
    outer loop
      vertex -0.514388 0.132768 0.276268
      vertex -0.515969 0.128702 0.115798
      vertex -0.515969 0.128702 0.272202
    endloop
  endfacet
  facet normal -0.94693 0.32144 0
    outer loop
      vertex -0.515969 0.128702 0.115798
      vertex -0.517372 0.124571 0.119929
      vertex -0.515969 0.128702 0.272202
    endloop
  endfacet
  facet normal -0.94693 0.32144 0
    outer loop
      vertex -0.515969 0.128702 0.272202
      vertex -0.517372 0.124571 0.119929
      vertex -0.517372 0.124571 0.268071
    endloop
  endfacet
  facet normal -0.96005 0.279828 0
    outer loop
      vertex -0.517372 0.124571 0.119929
      vertex -0.518593 0.120382 0.124118
      vertex -0.517372 0.124571 0.268071
    endloop
  endfacet
  facet normal -0.96005 0.279828 0
    outer loop
      vertex -0.517372 0.124571 0.268071
      vertex -0.518593 0.120382 0.124118
      vertex -0.518593 0.120382 0.263882
    endloop
  endfacet
  facet normal -0.971343 0.237682 0
    outer loop
      vertex -0.518593 0.120382 0.124118
      vertex -0.51963 0.116144 0.128356
      vertex -0.518593 0.120382 0.263882
    endloop
  endfacet
  facet normal -0.971343 0.237682 0
    outer loop
      vertex -0.518593 0.120382 0.263882
      vertex -0.51963 0.116144 0.128356
      vertex -0.51963 0.116144 0.259644
    endloop
  endfacet
  facet normal -0.980786 0.195086 0
    outer loop
      vertex -0.51963 0.116144 0.128356
      vertex -0.520481 0.111865 0.132635
      vertex -0.51963 0.116144 0.259644
    endloop
  endfacet
  facet normal -0.980786 0.195086 0
    outer loop
      vertex -0.51963 0.116144 0.259644
      vertex -0.520481 0.111865 0.132635
      vertex -0.520481 0.111865 0.255365
    endloop
  endfacet
  facet normal -0.98836 0.152134 0
    outer loop
      vertex -0.520481 0.111865 0.132635
      vertex -0.521145 0.107553 0.136947
      vertex -0.520481 0.111865 0.255365
    endloop
  endfacet
  facet normal -0.98836 0.152134 0
    outer loop
      vertex -0.520481 0.111865 0.255365
      vertex -0.521145 0.107553 0.136947
      vertex -0.521145 0.107553 0.251053
    endloop
  endfacet
  facet normal -0.994056 0.108868 0
    outer loop
      vertex -0.521145 0.107553 0.136947
      vertex -0.521619 0.103216 0.141284
      vertex -0.521145 0.107553 0.251053
    endloop
  endfacet
  facet normal -0.994056 0.108868 0
    outer loop
      vertex -0.521145 0.107553 0.251053
      vertex -0.521619 0.103216 0.141284
      vertex -0.521619 0.103216 0.246716
    endloop
  endfacet
  facet normal -0.997859 0.0653975 0
    outer loop
      vertex -0.521619 0.103216 0.141284
      vertex -0.521905 0.0988619 0.145638
      vertex -0.521619 0.103216 0.246716
    endloop
  endfacet
  facet normal -0.997859 0.0653975 0
    outer loop
      vertex -0.521619 0.103216 0.246716
      vertex -0.521905 0.0988619 0.145638
      vertex -0.521905 0.0988619 0.242362
    endloop
  endfacet
  facet normal -0.999762 0.0218173 0
    outer loop
      vertex -0.521905 0.0988619 0.145638
      vertex -0.522 0.0945 0.15
      vertex -0.521905 0.0988619 0.242362
    endloop
  endfacet
  facet normal -0.999762 0.0218173 0
    outer loop
      vertex -0.521905 0.0988619 0.242362
      vertex -0.522 0.0945 0.15
      vertex -0.522 0.0945 0.238
    endloop
  endfacet
  facet normal -1 0 0
    outer loop
      vertex -0.522 -0.0945 0.15
      vertex -0.522 -0.0945 0.238
      vertex -0.522 0.0945 0.15
    endloop
  endfacet
  facet normal -1 0 0
    outer loop
      vertex -0.522 -0.0945 0.238
      vertex -0.522 0.0945 0.238
      vertex -0.522 0.0945 0.15
    endloop
  endfacet
  facet normal -0.010908 -0.999941 0
    outer loop
      vertex -0.422 -0.1945 0.05
      vertex -0.422 -0.1945 0.338
      vertex -0.424181 -0.194476 0.0500238
    endloop
  endfacet
  facet normal -0.010908 -0.999941 0
    outer loop
      vertex -0.422 -0.1945 0.338
      vertex -0.424181 -0.194476 0.337976
      vertex -0.424181 -0.194476 0.0500238
    endloop
  endfacet
  facet normal -0.0327172 -0.999465 0
    outer loop
      vertex -0.424181 -0.194476 0.0500238
      vertex -0.424181 -0.194476 0.337976
      vertex -0.426362 -0.194405 0.0500952
    endloop
  endfacet
  facet normal -0.0327172 -0.999465 0
    outer loop
      vertex -0.424181 -0.194476 0.337976
      vertex -0.426362 -0.194405 0.337905
      vertex -0.426362 -0.194405 0.0500952
    endloop
  endfacet
  facet normal -0.0545129 -0.998513 0
    outer loop
      vertex -0.426362 -0.194405 0.337905
      vertex -0.42854 -0.194286 0.337786
      vertex -0.426362 -0.194405 0.0500952
    endloop
  endfacet
  facet normal -0.0545129 -0.998513 0
    outer loop
      vertex -0.426362 -0.194405 0.0500952
      vertex -0.42854 -0.194286 0.337786
      vertex -0.42854 -0.194286 0.0502141
    endloop
  endfacet
  facet normal -0.0762886 -0.997086 0
    outer loop
      vertex -0.42854 -0.194286 0.337786
      vertex -0.430716 -0.194119 0.337619
      vertex -0.42854 -0.194286 0.0502141
    endloop
  endfacet
  facet normal -0.0762886 -0.997086 0
    outer loop
      vertex -0.42854 -0.194286 0.0502141
      vertex -0.430716 -0.194119 0.337619
      vertex -0.430716 -0.194119 0.0503805
    endloop
  endfacet
  facet normal -0.0980145 -0.995185 0
    outer loop
      vertex -0.430716 -0.194119 0.337619
      vertex -0.432887 -0.193906 0.337406
      vertex -0.430716 -0.194119 0.0503805
    endloop
  endfacet
  facet normal -0.0980145 -0.995185 0
    outer loop
      vertex -0.430716 -0.194119 0.0503805
      vertex -0.432887 -0.193906 0.337406
      vertex -0.432887 -0.193906 0.0505944
    endloop
  endfacet
  facet normal -0.119708 -0.992809 0
    outer loop
      vertex -0.432887 -0.193906 0.337406
      vertex -0.435053 -0.193644 0.337144
      vertex -0.432887 -0.193906 0.0505944
    endloop
  endfacet
  facet normal -0.119708 -0.992809 0
    outer loop
      vertex -0.432887 -0.193906 0.0505944
      vertex -0.435053 -0.193644 0.337144
      vertex -0.435053 -0.193644 0.0508555
    endloop
  endfacet
  facet normal -0.141333 -0.989962 0
    outer loop
      vertex -0.435053 -0.193644 0.337144
      vertex -0.437212 -0.193336 0.336836
      vertex -0.435053 -0.193644 0.0508555
    endloop
  endfacet
  facet normal -0.141333 -0.989962 0
    outer loop
      vertex -0.435053 -0.193644 0.0508555
      vertex -0.437212 -0.193336 0.336836
      vertex -0.437212 -0.193336 0.0511638
    endloop
  endfacet
  facet normal -0.16289 -0.986644 0
    outer loop
      vertex -0.437212 -0.193336 0.336836
      vertex -0.439365 -0.192981 0.336481
      vertex -0.437212 -0.193336 0.0511638
    endloop
  endfacet
  facet normal -0.16289 -0.986644 0
    outer loop
      vertex -0.437212 -0.193336 0.0511638
      vertex -0.439365 -0.192981 0.336481
      vertex -0.439365 -0.192981 0.0515192
    endloop
  endfacet
  facet normal -0.184384 -0.982854 0
    outer loop
      vertex -0.439365 -0.192981 0.0515192
      vertex -0.439365 -0.192981 0.336481
      vertex -0.441509 -0.192579 0.0519215
    endloop
  endfacet
  facet normal -0.184384 -0.982854 0
    outer loop
      vertex -0.439365 -0.192981 0.336481
      vertex -0.441509 -0.192579 0.336079
      vertex -0.441509 -0.192579 0.0519215
    endloop
  endfacet
  facet normal -0.205778 -0.978599 0
    outer loop
      vertex -0.441509 -0.192579 0.0519215
      vertex -0.441509 -0.192579 0.336079
      vertex -0.443644 -0.19213 0.0523704
    endloop
  endfacet
  facet normal -0.205778 -0.978599 0
    outer loop
      vertex -0.441509 -0.192579 0.336079
      vertex -0.443644 -0.19213 0.33563
      vertex -0.443644 -0.19213 0.0523704
    endloop
  endfacet
  facet normal -0.227073 -0.973878 0
    outer loop
      vertex -0.443644 -0.19213 0.33563
      vertex -0.445769 -0.191634 0.335134
      vertex -0.443644 -0.19213 0.0523704
    endloop
  endfacet
  facet normal -0.227073 -0.973878 0
    outer loop
      vertex -0.443644 -0.19213 0.0523704
      vertex -0.445769 -0.191634 0.335134
      vertex -0.445769 -0.191634 0.0528658
    endloop
  endfacet
  facet normal -0.248269 -0.968691 0
    outer loop
      vertex -0.445769 -0.191634 0.335134
      vertex -0.447882 -0.191093 0.334593
      vertex -0.445769 -0.191634 0.0528658
    endloop
  endfacet
  facet normal -0.248269 -0.968691 0
    outer loop
      vertex -0.445769 -0.191634 0.0528658
      vertex -0.447882 -0.191093 0.334593
      vertex -0.447882 -0.191093 0.0534074
    endloop
  endfacet
  facet normal -0.269339 -0.963045 0
    outer loop
      vertex -0.447882 -0.191093 0.334593
      vertex -0.449983 -0.190505 0.334005
      vertex -0.447882 -0.191093 0.0534074
    endloop
  endfacet
  facet normal -0.269339 -0.963045 0
    outer loop
      vertex -0.447882 -0.191093 0.0534074
      vertex -0.449983 -0.190505 0.334005
      vertex -0.449983 -0.190505 0.053995
    endloop
  endfacet
  facet normal -0.290282 -0.956941 0
    outer loop
      vertex -0.449983 -0.190505 0.334005
      vertex -0.452071 -0.189872 0.333372
      vertex -0.449983 -0.190505 0.053995
    endloop
  endfacet
  facet normal -0.290282 -0.956941 0
    outer loop
      vertex -0.449983 -0.190505 0.053995
      vertex -0.452071 -0.189872 0.333372
      vertex -0.452071 -0.189872 0.0546283
    endloop
  endfacet
  facet normal -0.311096 -0.950378 0
    outer loop
      vertex -0.452071 -0.189872 0.333372
      vertex -0.454144 -0.189193 0.332693
      vertex -0.452071 -0.189872 0.0546283
    endloop
  endfacet
  facet normal -0.311096 -0.950378 0
    outer loop
      vertex -0.452071 -0.189872 0.0546283
      vertex -0.454144 -0.189193 0.332693
      vertex -0.454144 -0.189193 0.055307
    endloop
  endfacet
  facet normal -0.33175 -0.943367 0
    outer loop
      vertex -0.454144 -0.189193 0.332693
      vertex -0.456202 -0.188469 0.331969
      vertex -0.454144 -0.189193 0.055307
    endloop
  endfacet
  facet normal -0.33175 -0.943367 0
    outer loop
      vertex -0.454144 -0.189193 0.055307
      vertex -0.456202 -0.188469 0.331969
      vertex -0.456202 -0.188469 0.0560307
    endloop
  endfacet
  facet normal -0.352243 -0.935909 0
    outer loop
      vertex -0.456202 -0.188469 0.331969
      vertex -0.458244 -0.187701 0.331201
      vertex -0.456202 -0.188469 0.0560307
    endloop
  endfacet
  facet normal -0.352243 -0.935909 0
    outer loop
      vertex -0.456202 -0.188469 0.0560307
      vertex -0.458244 -0.187701 0.331201
      vertex -0.458244 -0.187701 0.0567992
    endloop
  endfacet
  facet normal -0.372588 -0.927997 0
    outer loop
      vertex -0.458244 -0.187701 0.331201
      vertex -0.460268 -0.186888 0.330388
      vertex -0.458244 -0.187701 0.0567992
    endloop
  endfacet
  facet normal -0.372588 -0.927997 0
    outer loop
      vertex -0.458244 -0.187701 0.0567992
      vertex -0.460268 -0.186888 0.330388
      vertex -0.460268 -0.186888 0.057612
    endloop
  endfacet
  facet normal -0.392738 -0.919651 0
    outer loop
      vertex -0.460268 -0.186888 0.330388
      vertex -0.462275 -0.186031 0.329531
      vertex -0.460268 -0.186888 0.057612
    endloop
  endfacet
  facet normal -0.392738 -0.919651 0
    outer loop
      vertex -0.460268 -0.186888 0.057612
      vertex -0.462275 -0.186031 0.329531
      vertex -0.462275 -0.186031 0.0584689
    endloop
  endfacet
  facet normal -0.412708 -0.910863 0
    outer loop
      vertex -0.462275 -0.186031 0.329531
      vertex -0.464262 -0.185131 0.328631
      vertex -0.462275 -0.186031 0.0584689
    endloop
  endfacet
  facet normal -0.412708 -0.910863 0
    outer loop
      vertex -0.462275 -0.186031 0.0584689
      vertex -0.464262 -0.185131 0.328631
      vertex -0.464262 -0.185131 0.0593692
    endloop
  endfacet
  facet normal -0.432476 -0.901645 0
    outer loop
      vertex -0.464262 -0.185131 0.328631
      vertex -0.466229 -0.184187 0.327687
      vertex -0.464262 -0.185131 0.0593692
    endloop
  endfacet
  facet normal -0.432476 -0.901645 0
    outer loop
      vertex -0.464262 -0.185131 0.0593692
      vertex -0.466229 -0.184187 0.327687
      vertex -0.466229 -0.184187 0.0603127
    endloop
  endfacet
  facet normal -0.452043 -0.891996 0
    outer loop
      vertex -0.466229 -0.184187 0.327687
      vertex -0.468175 -0.183201 0.326701
      vertex -0.466229 -0.184187 0.0603127
    endloop
  endfacet
  facet normal -0.452043 -0.891996 0
    outer loop
      vertex -0.466229 -0.184187 0.0603127
      vertex -0.468175 -0.183201 0.326701
      vertex -0.468175 -0.183201 0.0612989
    endloop
  endfacet
  facet normal -0.471402 -0.881918 0
    outer loop
      vertex -0.468175 -0.183201 0.0612989
      vertex -0.468175 -0.183201 0.326701
      vertex -0.470099 -0.182173 0.0623273
    endloop
  endfacet
  facet normal -0.471402 -0.881918 0
    outer loop
      vertex -0.468175 -0.183201 0.326701
      vertex -0.470099 -0.182173 0.325673
      vertex -0.470099 -0.182173 0.0623273
    endloop
  endfacet
  facet normal -0.490521 -0.871429 0
    outer loop
      vertex -0.470099 -0.182173 0.0623273
      vertex -0.470099 -0.182173 0.325673
      vertex -0.472 -0.181103 0.0633975
    endloop
  endfacet
  facet normal -0.490521 -0.871429 0
    outer loop
      vertex -0.470099 -0.182173 0.325673
      vertex -0.472 -0.181103 0.324603
      vertex -0.472 -0.181103 0.0633975
    endloop
  endfacet
  facet normal -0.509416 -0.86052 0
    outer loop
      vertex -0.472 -0.181103 0.324603
      vertex -0.473877 -0.179991 0.323491
      vertex -0.472 -0.181103 0.0633975
    endloop
  endfacet
  facet normal -0.509416 -0.86052 0
    outer loop
      vertex -0.472 -0.181103 0.0633975
      vertex -0.473877 -0.179991 0.323491
      vertex -0.473877 -0.179991 0.0645088
    endloop
  endfacet
  facet normal -0.528067 -0.849203 0
    outer loop
      vertex -0.473877 -0.179991 0.323491
      vertex -0.47573 -0.178839 0.322339
      vertex -0.473877 -0.179991 0.0645088
    endloop
  endfacet
  facet normal -0.528067 -0.849203 0
    outer loop
      vertex -0.473877 -0.179991 0.0645088
      vertex -0.47573 -0.178839 0.322339
      vertex -0.47573 -0.178839 0.0656609
    endloop
  endfacet
  facet normal -0.546467 -0.83748 0
    outer loop
      vertex -0.47573 -0.178839 0.0656609
      vertex -0.47573 -0.178839 0.322339
      vertex -0.477557 -0.177647 0.066853
    endloop
  endfacet
  facet normal -0.546467 -0.83748 0
    outer loop
      vertex -0.47573 -0.178839 0.322339
      vertex -0.477557 -0.177647 0.321147
      vertex -0.477557 -0.177647 0.066853
    endloop
  endfacet
  facet normal -0.564613 -0.825356 0
    outer loop
      vertex -0.477557 -0.177647 0.066853
      vertex -0.477557 -0.177647 0.321147
      vertex -0.479358 -0.176415 0.0680848
    endloop
  endfacet
  facet normal -0.564613 -0.825356 0
    outer loop
      vertex -0.477557 -0.177647 0.321147
      vertex -0.479358 -0.176415 0.319915
      vertex -0.479358 -0.176415 0.0680848
    endloop
  endfacet
  facet normal -0.582475 -0.812848 0
    outer loop
      vertex -0.479358 -0.176415 0.0680848
      vertex -0.479358 -0.176415 0.319915
      vertex -0.481131 -0.175144 0.0693555
    endloop
  endfacet
  facet normal -0.582475 -0.812848 0
    outer loop
      vertex -0.479358 -0.176415 0.319915
      vertex -0.481131 -0.175144 0.318644
      vertex -0.481131 -0.175144 0.0693555
    endloop
  endfacet
  facet normal -0.600068 -0.799949 0
    outer loop
      vertex -0.481131 -0.175144 0.0693555
      vertex -0.481131 -0.175144 0.318644
      vertex -0.482876 -0.173835 0.0706647
    endloop
  endfacet
  facet normal -0.600068 -0.799949 0
    outer loop
      vertex -0.481131 -0.175144 0.318644
      vertex -0.482876 -0.173835 0.317335
      vertex -0.482876 -0.173835 0.0706647
    endloop
  endfacet
  facet normal -0.617381 -0.786664 0
    outer loop
      vertex -0.482876 -0.173835 0.0706647
      vertex -0.482876 -0.173835 0.317335
      vertex -0.484592 -0.172488 0.0720116
    endloop
  endfacet
  facet normal -0.617381 -0.786664 0
    outer loop
      vertex -0.482876 -0.173835 0.317335
      vertex -0.484592 -0.172488 0.315988
      vertex -0.484592 -0.172488 0.0720116
    endloop
  endfacet
  facet normal -0.634391 -0.773012 0
    outer loop
      vertex -0.484592 -0.172488 0.0720116
      vertex -0.484592 -0.172488 0.315988
      vertex -0.486279 -0.171104 0.0733956
    endloop
  endfacet
  facet normal -0.634391 -0.773012 0
    outer loop
      vertex -0.484592 -0.172488 0.315988
      vertex -0.486279 -0.171104 0.314604
      vertex -0.486279 -0.171104 0.0733956
    endloop
  endfacet
  facet normal -0.659347 -0.751839 0
    outer loop
      vertex -0.486279 -0.171104 0.314604
      vertex -0.489559 -0.168228 0.311728
      vertex -0.486279 -0.171104 0.0733956
    endloop
  endfacet
  facet normal -0.659347 -0.751839 0
    outer loop
      vertex -0.486279 -0.171104 0.0733956
      vertex -0.489559 -0.168228 0.311728
      vertex -0.489559 -0.168228 0.0762723
    endloop
  endfacet
  facet normal -0.691513 -0.722364 0
    outer loop
      vertex -0.489559 -0.168228 0.311728
      vertex -0.492711 -0.165211 0.308711
      vertex -0.489559 -0.168228 0.0762723
    endloop
  endfacet
  facet normal -0.691513 -0.722364 0
    outer loop
      vertex -0.489559 -0.168228 0.0762723
      vertex -0.492711 -0.165211 0.308711
      vertex -0.492711 -0.165211 0.0792893
    endloop
  endfacet
  facet normal -0.722362 -0.691515 0
    outer loop
      vertex -0.492711 -0.165211 0.308711
      vertex -0.495728 -0.162059 0.305559
      vertex -0.492711 -0.165211 0.0792893
    endloop
  endfacet
  facet normal -0.722362 -0.691515 0
    outer loop
      vertex -0.492711 -0.165211 0.0792893
      vertex -0.495728 -0.162059 0.305559
      vertex -0.495728 -0.162059 0.082441
    endloop
  endfacet
  facet normal -0.751842 -0.659343 0
    outer loop
      vertex -0.495728 -0.162059 0.305559
      vertex -0.498604 -0.158779 0.302279
      vertex -0.495728 -0.162059 0.082441
    endloop
  endfacet
  facet normal -0.751842 -0.659343 0
    outer loop
      vertex -0.495728 -0.162059 0.082441
      vertex -0.498604 -0.158779 0.302279
      vertex -0.498604 -0.158779 0.0857212
    endloop
  endfacet
  facet normal -0.779886 -0.625921 0
    outer loop
      vertex -0.498604 -0.158779 0.302279
      vertex -0.501335 -0.155376 0.298876
      vertex -0.498604 -0.158779 0.0857212
    endloop
  endfacet
  facet normal -0.779886 -0.625921 0
    outer loop
      vertex -0.498604 -0.158779 0.0857212
      vertex -0.501335 -0.155376 0.298876
      vertex -0.501335 -0.155376 0.0891239
    endloop
  endfacet
  facet normal -0.806444 -0.59131 0
    outer loop
      vertex -0.501335 -0.155376 0.298876
      vertex -0.503915 -0.151858 0.295358
      vertex -0.501335 -0.155376 0.0891239
    endloop
  endfacet
  facet normal -0.806444 -0.59131 0
    outer loop
      vertex -0.501335 -0.155376 0.0891239
      vertex -0.503915 -0.151858 0.295358
      vertex -0.503915 -0.151858 0.0926424
    endloop
  endfacet
  facet normal -0.83147 -0.55557 0
    outer loop
      vertex -0.503915 -0.151858 0.295358
      vertex -0.506339 -0.14823 0.29173
      vertex -0.503915 -0.151858 0.0926424
    endloop
  endfacet
  facet normal -0.83147 -0.55557 0
    outer loop
      vertex -0.503915 -0.151858 0.0926424
      vertex -0.506339 -0.14823 0.29173
      vertex -0.506339 -0.14823 0.09627
    endloop
  endfacet
  facet normal -0.854908 -0.518779 0
    outer loop
      vertex -0.506339 -0.14823 0.29173
      vertex -0.508603 -0.1445 0.288
      vertex -0.506339 -0.14823 0.09627
    endloop
  endfacet
  facet normal -0.854908 -0.518779 0
    outer loop
      vertex -0.506339 -0.14823 0.09627
      vertex -0.508603 -0.1445 0.288
      vertex -0.508603 -0.1445 0.1
    endloop
  endfacet
  facet normal -0.876731 -0.480981 0
    outer loop
      vertex -0.508603 -0.1445 0.288
      vertex -0.510701 -0.140675 0.284175
      vertex -0.508603 -0.1445 0.1
    endloop
  endfacet
  facet normal -0.876731 -0.480981 0
    outer loop
      vertex -0.508603 -0.1445 0.1
      vertex -0.510701 -0.140675 0.284175
      vertex -0.510701 -0.140675 0.103825
    endloop
  endfacet
  facet normal -0.896872 -0.44229 0
    outer loop
      vertex -0.510701 -0.140675 0.284175
      vertex -0.512631 -0.136762 0.280262
      vertex -0.510701 -0.140675 0.103825
    endloop
  endfacet
  facet normal -0.896872 -0.44229 0
    outer loop
      vertex -0.510701 -0.140675 0.103825
      vertex -0.512631 -0.136762 0.280262
      vertex -0.512631 -0.136762 0.107738
    endloop
  endfacet
  facet normal -0.915309 -0.402753 0
    outer loop
      vertex -0.512631 -0.136762 0.280262
      vertex -0.514388 -0.132768 0.276268
      vertex -0.512631 -0.136762 0.107738
    endloop
  endfacet
  facet normal -0.915309 -0.402753 0
    outer loop
      vertex -0.512631 -0.136762 0.107738
      vertex -0.514388 -0.132768 0.276268
      vertex -0.514388 -0.132768 0.111732
    endloop
  endfacet
  facet normal -0.932008 -0.362438 0
    outer loop
      vertex -0.514388 -0.132768 0.276268
      vertex -0.515969 -0.128702 0.272202
      vertex -0.514388 -0.132768 0.111732
    endloop
  endfacet
  facet normal -0.932008 -0.362438 0
    outer loop
      vertex -0.514388 -0.132768 0.111732
      vertex -0.515969 -0.128702 0.272202
      vertex -0.515969 -0.128702 0.115798
    endloop
  endfacet
  facet normal -0.94693 -0.32144 0
    outer loop
      vertex -0.515969 -0.128702 0.272202
      vertex -0.517372 -0.124571 0.268071
      vertex -0.515969 -0.128702 0.115798
    endloop
  endfacet
  facet normal -0.94693 -0.32144 0
    outer loop
      vertex -0.515969 -0.128702 0.115798
      vertex -0.517372 -0.124571 0.268071
      vertex -0.517372 -0.124571 0.119929
    endloop
  endfacet
  facet normal -0.96005 -0.279828 0
    outer loop
      vertex -0.517372 -0.124571 0.268071
      vertex -0.518593 -0.120382 0.263882
      vertex -0.517372 -0.124571 0.119929
    endloop
  endfacet
  facet normal -0.96005 -0.279828 0
    outer loop
      vertex -0.517372 -0.124571 0.119929
      vertex -0.518593 -0.120382 0.263882
      vertex -0.518593 -0.120382 0.124118
    endloop
  endfacet
  facet normal -0.971343 -0.237682 0
    outer loop
      vertex -0.518593 -0.120382 0.263882
      vertex -0.51963 -0.116144 0.259644
      vertex -0.518593 -0.120382 0.124118
    endloop
  endfacet
  facet normal -0.971343 -0.237682 0
    outer loop
      vertex -0.518593 -0.120382 0.124118
      vertex -0.51963 -0.116144 0.259644
      vertex -0.51963 -0.116144 0.128356
    endloop
  endfacet
  facet normal -0.980786 -0.195086 0
    outer loop
      vertex -0.51963 -0.116144 0.259644
      vertex -0.520481 -0.111865 0.255365
      vertex -0.51963 -0.116144 0.128356
    endloop
  endfacet
  facet normal -0.980786 -0.195086 0
    outer loop
      vertex -0.51963 -0.116144 0.128356
      vertex -0.520481 -0.111865 0.255365
      vertex -0.520481 -0.111865 0.132635
    endloop
  endfacet
  facet normal -0.98836 -0.152134 0
    outer loop
      vertex -0.520481 -0.111865 0.255365
      vertex -0.521145 -0.107553 0.251053
      vertex -0.520481 -0.111865 0.132635
    endloop
  endfacet
  facet normal -0.98836 -0.152134 0
    outer loop
      vertex -0.520481 -0.111865 0.132635
      vertex -0.521145 -0.107553 0.251053
      vertex -0.521145 -0.107553 0.136947
    endloop
  endfacet
  facet normal -0.994056 -0.108868 0
    outer loop
      vertex -0.521145 -0.107553 0.251053
      vertex -0.521619 -0.103216 0.246716
      vertex -0.521145 -0.107553 0.136947
    endloop
  endfacet
  facet normal -0.994056 -0.108868 0
    outer loop
      vertex -0.521145 -0.107553 0.136947
      vertex -0.521619 -0.103216 0.246716
      vertex -0.521619 -0.103216 0.141284
    endloop
  endfacet
  facet normal -0.997859 -0.0653975 0
    outer loop
      vertex -0.521619 -0.103216 0.246716
      vertex -0.521905 -0.0988619 0.242362
      vertex -0.521619 -0.103216 0.141284
    endloop
  endfacet
  facet normal -0.997859 -0.0653975 0
    outer loop
      vertex -0.521619 -0.103216 0.141284
      vertex -0.521905 -0.0988619 0.242362
      vertex -0.521905 -0.0988619 0.145638
    endloop
  endfacet
  facet normal -0.999762 -0.0218173 0
    outer loop
      vertex -0.521905 -0.0988619 0.242362
      vertex -0.522 -0.0945 0.238
      vertex -0.521905 -0.0988619 0.145638
    endloop
  endfacet
  facet normal -0.999762 -0.0218173 0
    outer loop
      vertex -0.521905 -0.0988619 0.145638
      vertex -0.522 -0.0945 0.238
      vertex -0.522 -0.0945 0.15
    endloop
  endfacet
  facet normal -0.999762 0 -0.0218173
    outer loop
      vertex -0.522 -0.0945 0.15
      vertex -0.522 0.0945 0.15
      vertex -0.521905 0.0988619 0.145638
    endloop
  endfacet
  facet normal -0.999762 0 -0.0218173
    outer loop
      vertex -0.522 -0.0945 0.15
      vertex -0.521905 0.0988619 0.145638
      vertex -0.521905 -0.0988619 0.145638
    endloop
  endfacet
  facet normal -0.997859 0 -0.0653973
    outer loop
      vertex -0.521905 0.0988619 0.145638
      vertex -0.521619 0.103216 0.141284
      vertex -0.521905 -0.0988619 0.145638
    endloop
  endfacet
  facet normal -0.997859 0 -0.0653973
    outer loop
      vertex -0.521905 -0.0988619 0.145638
      vertex -0.521619 0.103216 0.141284
      vertex -0.521619 -0.103216 0.141284
    endloop
  endfacet
  facet normal -0.994056 0 -0.108868
    outer loop
      vertex -0.521619 0.103216 0.141284
      vertex -0.521145 0.107553 0.136947
      vertex -0.521619 -0.103216 0.141284
    endloop
  endfacet
  facet normal -0.994056 0 -0.108868
    outer loop
      vertex -0.521619 -0.103216 0.141284
      vertex -0.521145 0.107553 0.136947
      vertex -0.521145 -0.107553 0.136947
    endloop
  endfacet
  facet normal -0.98836 0 -0.152134
    outer loop
      vertex -0.521145 0.107553 0.136947
      vertex -0.520481 0.111865 0.132635
      vertex -0.521145 -0.107553 0.136947
    endloop
  endfacet
  facet normal -0.98836 0 -0.152134
    outer loop
      vertex -0.521145 -0.107553 0.136947
      vertex -0.520481 0.111865 0.132635
      vertex -0.520481 -0.111865 0.132635
    endloop
  endfacet
  facet normal -0.980786 0 -0.195086
    outer loop
      vertex -0.520481 0.111865 0.132635
      vertex -0.51963 0.116144 0.128356
      vertex -0.520481 -0.111865 0.132635
    endloop
  endfacet
  facet normal -0.980786 0 -0.195086
    outer loop
      vertex -0.520481 -0.111865 0.132635
      vertex -0.51963 0.116144 0.128356
      vertex -0.51963 -0.116144 0.128356
    endloop
  endfacet
  facet normal -0.971343 0 -0.237682
    outer loop
      vertex -0.51963 0.116144 0.128356
      vertex -0.518593 0.120382 0.124118
      vertex -0.51963 -0.116144 0.128356
    endloop
  endfacet
  facet normal -0.971343 0 -0.237682
    outer loop
      vertex -0.51963 -0.116144 0.128356
      vertex -0.518593 0.120382 0.124118
      vertex -0.518593 -0.120382 0.124118
    endloop
  endfacet
  facet normal -0.96005 0 -0.279828
    outer loop
      vertex -0.518593 0.120382 0.124118
      vertex -0.517372 0.124571 0.119929
      vertex -0.518593 -0.120382 0.124118
    endloop
  endfacet
  facet normal -0.96005 0 -0.279828
    outer loop
      vertex -0.518593 -0.120382 0.124118
      vertex -0.517372 0.124571 0.119929
      vertex -0.517372 -0.124571 0.119929
    endloop
  endfacet
  facet normal -0.94693 0 -0.321441
    outer loop
      vertex -0.517372 0.124571 0.119929
      vertex -0.515969 0.128702 0.115798
      vertex -0.517372 -0.124571 0.119929
    endloop
  endfacet
  facet normal -0.94693 0 -0.321441
    outer loop
      vertex -0.517372 -0.124571 0.119929
      vertex -0.515969 0.128702 0.115798
      vertex -0.515969 -0.128702 0.115798
    endloop
  endfacet
  facet normal -0.932008 0 -0.362438
    outer loop
      vertex -0.515969 0.128702 0.115798
      vertex -0.514388 0.132768 0.111732
      vertex -0.515969 -0.128702 0.115798
    endloop
  endfacet
  facet normal -0.932008 0 -0.362438
    outer loop
      vertex -0.515969 -0.128702 0.115798
      vertex -0.514388 0.132768 0.111732
      vertex -0.514388 -0.132768 0.111732
    endloop
  endfacet
  facet normal -0.915309 0 -0.402753
    outer loop
      vertex -0.514388 0.132768 0.111732
      vertex -0.512631 0.136762 0.107738
      vertex -0.514388 -0.132768 0.111732
    endloop
  endfacet
  facet normal -0.915309 0 -0.402753
    outer loop
      vertex -0.514388 -0.132768 0.111732
      vertex -0.512631 0.136762 0.107738
      vertex -0.512631 -0.136762 0.107738
    endloop
  endfacet
  facet normal -0.896872 0 -0.442289
    outer loop
      vertex -0.512631 0.136762 0.107738
      vertex -0.510701 0.140675 0.103825
      vertex -0.512631 -0.136762 0.107738
    endloop
  endfacet
  facet normal -0.896872 0 -0.442289
    outer loop
      vertex -0.512631 -0.136762 0.107738
      vertex -0.510701 0.140675 0.103825
      vertex -0.510701 -0.140675 0.103825
    endloop
  endfacet
  facet normal -0.876731 0 -0.480982
    outer loop
      vertex -0.510701 0.140675 0.103825
      vertex -0.508603 0.1445 0.1
      vertex -0.510701 -0.140675 0.103825
    endloop
  endfacet
  facet normal -0.876731 0 -0.480982
    outer loop
      vertex -0.510701 -0.140675 0.103825
      vertex -0.508603 0.1445 0.1
      vertex -0.508603 -0.1445 0.1
    endloop
  endfacet
  facet normal -0.854909 0 -0.518778
    outer loop
      vertex -0.508603 0.1445 0.1
      vertex -0.506339 0.14823 0.09627
      vertex -0.508603 -0.1445 0.1
    endloop
  endfacet
  facet normal -0.854909 0 -0.518778
    outer loop
      vertex -0.508603 -0.1445 0.1
      vertex -0.506339 0.14823 0.09627
      vertex -0.506339 -0.14823 0.09627
    endloop
  endfacet
  facet normal -0.831469 0 -0.555571
    outer loop
      vertex -0.506339 0.14823 0.09627
      vertex -0.503915 0.151858 0.0926424
      vertex -0.506339 -0.14823 0.09627
    endloop
  endfacet
  facet normal -0.831469 0 -0.555571
    outer loop
      vertex -0.506339 -0.14823 0.09627
      vertex -0.503915 0.151858 0.0926424
      vertex -0.503915 -0.151858 0.0926424
    endloop
  endfacet
  facet normal -0.806445 0 -0.591309
    outer loop
      vertex -0.503915 0.151858 0.0926424
      vertex -0.501335 0.155376 0.0891239
      vertex -0.503915 -0.151858 0.0926424
    endloop
  endfacet
  facet normal -0.806445 0 -0.591309
    outer loop
      vertex -0.503915 -0.151858 0.0926424
      vertex -0.501335 0.155376 0.0891239
      vertex -0.501335 -0.155376 0.0891239
    endloop
  endfacet
  facet normal -0.779886 0 -0.625921
    outer loop
      vertex -0.501335 0.155376 0.0891239
      vertex -0.498604 0.158779 0.0857212
      vertex -0.501335 -0.155376 0.0891239
    endloop
  endfacet
  facet normal -0.779886 0 -0.625921
    outer loop
      vertex -0.501335 -0.155376 0.0891239
      vertex -0.498604 0.158779 0.0857212
      vertex -0.498604 -0.158779 0.0857212
    endloop
  endfacet
  facet normal -0.751841 0 -0.659344
    outer loop
      vertex -0.498604 0.158779 0.0857212
      vertex -0.495728 0.162059 0.082441
      vertex -0.498604 -0.158779 0.0857212
    endloop
  endfacet
  facet normal -0.751841 0 -0.659344
    outer loop
      vertex -0.498604 -0.158779 0.0857212
      vertex -0.495728 0.162059 0.082441
      vertex -0.495728 -0.162059 0.082441
    endloop
  endfacet
  facet normal -0.722362 0 -0.691515
    outer loop
      vertex -0.495728 0.162059 0.082441
      vertex -0.492711 0.165211 0.0792893
      vertex -0.495728 -0.162059 0.082441
    endloop
  endfacet
  facet normal -0.722362 0 -0.691515
    outer loop
      vertex -0.495728 -0.162059 0.082441
      vertex -0.492711 0.165211 0.0792893
      vertex -0.492711 -0.165211 0.0792893
    endloop
  endfacet
  facet normal -0.691514 0 -0.722363
    outer loop
      vertex -0.492711 0.165211 0.0792893
      vertex -0.489559 0.168228 0.0762723
      vertex -0.492711 -0.165211 0.0792893
    endloop
  endfacet
  facet normal -0.691514 0 -0.722363
    outer loop
      vertex -0.492711 -0.165211 0.0792893
      vertex -0.489559 0.168228 0.0762723
      vertex -0.489559 -0.168228 0.0762723
    endloop
  endfacet
  facet normal -0.659346 0 -0.75184
    outer loop
      vertex -0.489559 0.168228 0.0762723
      vertex -0.486279 0.171104 0.0733956
      vertex -0.489559 -0.168228 0.0762723
    endloop
  endfacet
  facet normal -0.659346 0 -0.75184
    outer loop
      vertex -0.489559 -0.168228 0.0762723
      vertex -0.486279 0.171104 0.0733956
      vertex -0.486279 -0.171104 0.0733956
    endloop
  endfacet
  facet normal -0.634391 0 -0.773012
    outer loop
      vertex -0.486279 -0.171104 0.0733956
      vertex -0.486279 0.171104 0.0733956
      vertex -0.484592 -0.172488 0.0720116
    endloop
  endfacet
  facet normal -0.634391 0 -0.773012
    outer loop
      vertex -0.486279 0.171104 0.0733956
      vertex -0.484592 0.172488 0.0720116
      vertex -0.484592 -0.172488 0.0720116
    endloop
  endfacet
  facet normal -0.617381 0 -0.786664
    outer loop
      vertex -0.484592 -0.172488 0.0720116
      vertex -0.484592 0.172488 0.0720116
      vertex -0.482876 -0.173835 0.0706647
    endloop
  endfacet
  facet normal -0.617381 0 -0.786664
    outer loop
      vertex -0.484592 0.172488 0.0720116
      vertex -0.482876 0.173835 0.0706647
      vertex -0.482876 -0.173835 0.0706647
    endloop
  endfacet
  facet normal -0.600068 0 -0.799949
    outer loop
      vertex -0.482876 -0.173835 0.0706647
      vertex -0.482876 0.173835 0.0706647
      vertex -0.481131 -0.175144 0.0693555
    endloop
  endfacet
  facet normal -0.600068 0 -0.799949
    outer loop
      vertex -0.482876 0.173835 0.0706647
      vertex -0.481131 0.175144 0.0693555
      vertex -0.481131 -0.175144 0.0693555
    endloop
  endfacet
  facet normal -0.582475 0 -0.812848
    outer loop
      vertex -0.481131 -0.175144 0.0693555
      vertex -0.481131 0.175144 0.0693555
      vertex -0.479358 -0.176415 0.0680848
    endloop
  endfacet
  facet normal -0.582475 0 -0.812848
    outer loop
      vertex -0.481131 0.175144 0.0693555
      vertex -0.479358 0.176415 0.0680848
      vertex -0.479358 -0.176415 0.0680848
    endloop
  endfacet
  facet normal -0.564613 0 -0.825356
    outer loop
      vertex -0.479358 0.176415 0.0680848
      vertex -0.477557 0.177647 0.066853
      vertex -0.479358 -0.176415 0.0680848
    endloop
  endfacet
  facet normal -0.564613 0 -0.825356
    outer loop
      vertex -0.479358 -0.176415 0.0680848
      vertex -0.477557 0.177647 0.066853
      vertex -0.477557 -0.177647 0.066853
    endloop
  endfacet
  facet normal -0.546467 0 -0.83748
    outer loop
      vertex -0.477557 0.177647 0.066853
      vertex -0.47573 0.178839 0.0656609
      vertex -0.477557 -0.177647 0.066853
    endloop
  endfacet
  facet normal -0.546467 0 -0.83748
    outer loop
      vertex -0.477557 -0.177647 0.066853
      vertex -0.47573 0.178839 0.0656609
      vertex -0.47573 -0.178839 0.0656609
    endloop
  endfacet
  facet normal -0.52807 0 -0.849201
    outer loop
      vertex -0.47573 -0.178839 0.0656609
      vertex -0.47573 0.178839 0.0656609
      vertex -0.473877 -0.179991 0.0645088
    endloop
  endfacet
  facet normal -0.52807 0 -0.849201
    outer loop
      vertex -0.47573 0.178839 0.0656609
      vertex -0.473877 0.179991 0.0645088
      vertex -0.473877 -0.179991 0.0645088
    endloop
  endfacet
  facet normal -0.509414 0 -0.860522
    outer loop
      vertex -0.473877 -0.179991 0.0645088
      vertex -0.473877 0.179991 0.0645088
      vertex -0.472 -0.181103 0.0633975
    endloop
  endfacet
  facet normal -0.509414 0 -0.860522
    outer loop
      vertex -0.473877 0.179991 0.0645088
      vertex -0.472 0.181103 0.0633975
      vertex -0.472 -0.181103 0.0633975
    endloop
  endfacet
  facet normal -0.490524 0 -0.871428
    outer loop
      vertex -0.472 -0.181103 0.0633975
      vertex -0.472 0.181103 0.0633975
      vertex -0.470099 -0.182173 0.0623273
    endloop
  endfacet
  facet normal -0.490524 0 -0.871428
    outer loop
      vertex -0.472 0.181103 0.0633975
      vertex -0.470099 0.182173 0.0623273
      vertex -0.470099 -0.182173 0.0623273
    endloop
  endfacet
  facet normal -0.471398 0 -0.881921
    outer loop
      vertex -0.470099 -0.182173 0.0623273
      vertex -0.470099 0.182173 0.0623273
      vertex -0.468175 -0.183201 0.0612989
    endloop
  endfacet
  facet normal -0.471398 0 -0.881921
    outer loop
      vertex -0.470099 0.182173 0.0623273
      vertex -0.468175 0.183201 0.0612989
      vertex -0.468175 -0.183201 0.0612989
    endloop
  endfacet
  facet normal -0.452044 0 -0.891996
    outer loop
      vertex -0.468175 -0.183201 0.0612989
      vertex -0.468175 0.183201 0.0612989
      vertex -0.466229 -0.184187 0.0603127
    endloop
  endfacet
  facet normal -0.452044 0 -0.891996
    outer loop
      vertex -0.468175 0.183201 0.0612989
      vertex -0.466229 0.184187 0.0603127
      vertex -0.466229 -0.184187 0.0603127
    endloop
  endfacet
  facet normal -0.432479 0 -0.901644
    outer loop
      vertex -0.466229 -0.184187 0.0603127
      vertex -0.466229 0.184187 0.0603127
      vertex -0.464262 -0.185131 0.0593692
    endloop
  endfacet
  facet normal -0.432479 0 -0.901644
    outer loop
      vertex -0.466229 0.184187 0.0603127
      vertex -0.464262 0.185131 0.0593692
      vertex -0.464262 -0.185131 0.0593692
    endloop
  endfacet
  facet normal -0.412707 0 -0.910864
    outer loop
      vertex -0.464262 -0.185131 0.0593692
      vertex -0.464262 0.185131 0.0593692
      vertex -0.462275 -0.186031 0.0584689
    endloop
  endfacet
  facet normal -0.412707 0 -0.910864
    outer loop
      vertex -0.464262 0.185131 0.0593692
      vertex -0.462275 0.186031 0.0584689
      vertex -0.462275 -0.186031 0.0584689
    endloop
  endfacet
  facet normal -0.392739 0 -0.91965
    outer loop
      vertex -0.462275 -0.186031 0.0584689
      vertex -0.462275 0.186031 0.0584689
      vertex -0.460268 -0.186888 0.057612
    endloop
  endfacet
  facet normal -0.392739 0 -0.91965
    outer loop
      vertex -0.462275 0.186031 0.0584689
      vertex -0.460268 0.186888 0.057612
      vertex -0.460268 -0.186888 0.057612
    endloop
  endfacet
  facet normal -0.372584 0 -0.927999
    outer loop
      vertex -0.460268 0.186888 0.057612
      vertex -0.458244 0.187701 0.0567992
      vertex -0.460268 -0.186888 0.057612
    endloop
  endfacet
  facet normal -0.372584 0 -0.927999
    outer loop
      vertex -0.460268 -0.186888 0.057612
      vertex -0.458244 0.187701 0.0567992
      vertex -0.458244 -0.187701 0.0567992
    endloop
  endfacet
  facet normal -0.352246 0 -0.935907
    outer loop
      vertex -0.458244 0.187701 0.0567992
      vertex -0.456202 0.188469 0.0560307
      vertex -0.458244 -0.187701 0.0567992
    endloop
  endfacet
  facet normal -0.352246 0 -0.935907
    outer loop
      vertex -0.458244 -0.187701 0.0567992
      vertex -0.456202 0.188469 0.0560307
      vertex -0.456202 -0.188469 0.0560307
    endloop
  endfacet
  facet normal -0.331752 0 -0.943367
    outer loop
      vertex -0.456202 0.188469 0.0560307
      vertex -0.454144 0.189193 0.055307
      vertex -0.456202 -0.188469 0.0560307
    endloop
  endfacet
  facet normal -0.331752 0 -0.943367
    outer loop
      vertex -0.456202 -0.188469 0.0560307
      vertex -0.454144 0.189193 0.055307
      vertex -0.454144 -0.189193 0.055307
    endloop
  endfacet
  facet normal -0.311093 0 -0.950379
    outer loop
      vertex -0.454144 0.189193 0.055307
      vertex -0.452071 0.189872 0.0546283
      vertex -0.454144 -0.189193 0.055307
    endloop
  endfacet
  facet normal -0.311093 0 -0.950379
    outer loop
      vertex -0.454144 -0.189193 0.055307
      vertex -0.452071 0.189872 0.0546283
      vertex -0.452071 -0.189872 0.0546283
    endloop
  endfacet
  facet normal -0.290285 0 -0.95694
    outer loop
      vertex -0.452071 0.189872 0.0546283
      vertex -0.449983 0.190505 0.053995
      vertex -0.452071 -0.189872 0.0546283
    endloop
  endfacet
  facet normal -0.290285 0 -0.95694
    outer loop
      vertex -0.452071 -0.189872 0.0546283
      vertex -0.449983 0.190505 0.053995
      vertex -0.449983 -0.190505 0.053995
    endloop
  endfacet
  facet normal -0.269339 0 -0.963045
    outer loop
      vertex -0.449983 0.190505 0.053995
      vertex -0.447882 0.191093 0.0534074
      vertex -0.449983 -0.190505 0.053995
    endloop
  endfacet
  facet normal -0.269339 0 -0.963045
    outer loop
      vertex -0.449983 -0.190505 0.053995
      vertex -0.447882 0.191093 0.0534074
      vertex -0.447882 -0.191093 0.0534074
    endloop
  endfacet
  facet normal -0.248267 0 -0.968692
    outer loop
      vertex -0.447882 -0.191093 0.0534074
      vertex -0.447882 0.191093 0.0534074
      vertex -0.445769 -0.191634 0.0528658
    endloop
  endfacet
  facet normal -0.248267 0 -0.968692
    outer loop
      vertex -0.447882 0.191093 0.0534074
      vertex -0.445769 0.191634 0.0528658
      vertex -0.445769 -0.191634 0.0528658
    endloop
  endfacet
  facet normal -0.227075 0 -0.973877
    outer loop
      vertex -0.445769 -0.191634 0.0528658
      vertex -0.445769 0.191634 0.0528658
      vertex -0.443644 -0.19213 0.0523704
    endloop
  endfacet
  facet normal -0.0545146 0 -0.998513
    outer loop
      vertex -0.426362 0.194405 0.0500952
      vertex -0.42854 -0.194286 0.0502141
      vertex -0.42854 0.194286 0.0502141
    endloop
  endfacet
  facet normal -0.0762852 0 -0.997086
    outer loop
      vertex -0.42854 -0.194286 0.0502141
      vertex -0.430716 -0.194119 0.0503805
      vertex -0.42854 0.194286 0.0502141
    endloop
  endfacet
  facet normal -0.0762852 0 -0.997086
    outer loop
      vertex -0.42854 0.194286 0.0502141
      vertex -0.430716 -0.194119 0.0503805
      vertex -0.430716 0.194119 0.0503805
    endloop
  endfacet
  facet normal -0.0980162 0 -0.995185
    outer loop
      vertex -0.430716 -0.194119 0.0503805
      vertex -0.432887 -0.193906 0.0505944
      vertex -0.430716 0.194119 0.0503805
    endloop
  endfacet
  facet normal -0.0980162 0 -0.995185
    outer loop
      vertex -0.430716 0.194119 0.0503805
      vertex -0.432887 -0.193906 0.0505944
      vertex -0.432887 0.193906 0.0505944
    endloop
  endfacet
  facet normal -0.119703 0 -0.99281
    outer loop
      vertex -0.432887 -0.193906 0.0505944
      vertex -0.435053 -0.193644 0.0508555
      vertex -0.432887 0.193906 0.0505944
    endloop
  endfacet
  facet normal -0.119703 0 -0.99281
    outer loop
      vertex -0.432887 0.193906 0.0505944
      vertex -0.435053 -0.193644 0.0508555
      vertex -0.435053 0.193644 0.0508555
    endloop
  endfacet
  facet normal -0.141333 0 -0.989962
    outer loop
      vertex -0.435053 -0.193644 0.0508555
      vertex -0.437212 -0.193336 0.0511638
      vertex -0.435053 0.193644 0.0508555
    endloop
  endfacet
  facet normal -0.141333 0 -0.989962
    outer loop
      vertex -0.435053 0.193644 0.0508555
      vertex -0.437212 -0.193336 0.0511638
      vertex -0.437212 0.193336 0.0511638
    endloop
  endfacet
  facet normal -0.162897 0 -0.986643
    outer loop
      vertex -0.437212 -0.193336 0.0511638
      vertex -0.439365 -0.192981 0.0515192
      vertex -0.437212 0.193336 0.0511638
    endloop
  endfacet
  facet normal -0.162897 0 -0.986643
    outer loop
      vertex -0.437212 0.193336 0.0511638
      vertex -0.439365 -0.192981 0.0515192
      vertex -0.439365 0.192981 0.0515192
    endloop
  endfacet
  facet normal -0.184379 0 -0.982855
    outer loop
      vertex -0.439365 -0.192981 0.0515192
      vertex -0.441509 -0.192579 0.0519215
      vertex -0.439365 0.192981 0.0515192
    endloop
  endfacet
  facet normal -0.184379 0 -0.982855
    outer loop
      vertex -0.439365 0.192981 0.0515192
      vertex -0.441509 -0.192579 0.0519215
      vertex -0.441509 0.192579 0.0519215
    endloop
  endfacet
  facet normal -0.205778 0 -0.978599
    outer loop
      vertex -0.441509 -0.192579 0.0519215
      vertex -0.443644 -0.19213 0.0523704
      vertex -0.441509 0.192579 0.0519215
    endloop
  endfacet
  facet normal -0.205778 0 -0.978599
    outer loop
      vertex -0.441509 0.192579 0.0519215
      vertex -0.443644 -0.19213 0.0523704
      vertex -0.443644 0.19213 0.0523704
    endloop
  endfacet
  facet normal -0.227075 0 -0.973877
    outer loop
      vertex -0.443644 -0.19213 0.0523704
      vertex -0.445769 0.191634 0.0528658
      vertex -0.443644 0.19213 0.0523704
    endloop
  endfacet
  facet normal -0.010908 0 -0.999941
    outer loop
      vertex -0.422 0.1945 0.05
      vertex -0.422 -0.1945 0.05
      vertex -0.424181 0.194476 0.0500238
    endloop
  endfacet
  facet normal -0.010908 0 -0.999941
    outer loop
      vertex -0.422 -0.1945 0.05
      vertex -0.424181 -0.194476 0.0500238
      vertex -0.424181 0.194476 0.0500238
    endloop
  endfacet
  facet normal -0.0327189 0 -0.999465
    outer loop
      vertex -0.424181 0.194476 0.0500238
      vertex -0.424181 -0.194476 0.0500238
      vertex -0.426362 0.194405 0.0500952
    endloop
  endfacet
  facet normal -0.0327189 0 -0.999465
    outer loop
      vertex -0.424181 -0.194476 0.0500238
      vertex -0.426362 -0.194405 0.0500952
      vertex -0.426362 0.194405 0.0500952
    endloop
  endfacet
  facet normal -0.0545146 0 -0.998513
    outer loop
      vertex -0.426362 0.194405 0.0500952
      vertex -0.426362 -0.194405 0.0500952
      vertex -0.42854 -0.194286 0.0502141
    endloop
  endfacet
  facet normal -0.0109011 0 0.999941
    outer loop
      vertex -0.422 -0.1945 0.338
      vertex -0.422 0.1945 0.338
      vertex -0.424181 -0.194476 0.337976
    endloop
  endfacet
  facet normal -0.0109011 0 0.999941
    outer loop
      vertex -0.422 0.1945 0.338
      vertex -0.424181 0.194476 0.337976
      vertex -0.424181 -0.194476 0.337976
    endloop
  endfacet
  facet normal -0.0327308 0 0.999464
    outer loop
      vertex -0.424181 -0.194476 0.337976
      vertex -0.424181 0.194476 0.337976
      vertex -0.426362 -0.194405 0.337905
    endloop
  endfacet
  facet normal -0.0327308 0 0.999464
    outer loop
      vertex -0.424181 0.194476 0.337976
      vertex -0.426362 0.194405 0.337905
      vertex -0.426362 -0.194405 0.337905
    endloop
  endfacet
  facet normal -0.0545061 0 0.998513
    outer loop
      vertex -0.426362 -0.194405 0.337905
      vertex -0.426362 0.194405 0.337905
      vertex -0.42854 -0.194286 0.337786
    endloop
  endfacet
  facet normal -0.0545061 0 0.998513
    outer loop
      vertex -0.426362 0.194405 0.337905
      vertex -0.42854 0.194286 0.337786
      vertex -0.42854 -0.194286 0.337786
    endloop
  endfacet
  facet normal -0.0762818 0 0.997086
    outer loop
      vertex -0.42854 -0.194286 0.337786
      vertex -0.42854 0.194286 0.337786
      vertex -0.430716 -0.194119 0.337619
    endloop
  endfacet
  facet normal -0.0762818 0 0.997086
    outer loop
      vertex -0.42854 0.194286 0.337786
      vertex -0.430716 0.194119 0.337619
      vertex -0.430716 -0.194119 0.337619
    endloop
  endfacet
  facet normal -0.098028 0 0.995184
    outer loop
      vertex -0.430716 -0.194119 0.337619
      vertex -0.430716 0.194119 0.337619
      vertex -0.432887 -0.193906 0.337406
    endloop
  endfacet
  facet normal -0.098028 0 0.995184
    outer loop
      vertex -0.430716 0.194119 0.337619
      vertex -0.432887 0.193906 0.337406
      vertex -0.432887 -0.193906 0.337406
    endloop
  endfacet
  facet normal -0.119694 0 0.992811
    outer loop
      vertex -0.432887 -0.193906 0.337406
      vertex -0.432887 0.193906 0.337406
      vertex -0.435053 -0.193644 0.337144
    endloop
  endfacet
  facet normal -0.119694 0 0.992811
    outer loop
      vertex -0.432887 0.193906 0.337406
      vertex -0.435053 0.193644 0.337144
      vertex -0.435053 -0.193644 0.337144
    endloop
  endfacet
  facet normal -0.141333 0 0.989962
    outer loop
      vertex -0.435053 0.193644 0.337144
      vertex -0.437212 0.193336 0.336836
      vertex -0.435053 -0.193644 0.337144
    endloop
  endfacet
  facet normal -0.141333 0 0.989962
    outer loop
      vertex -0.435053 -0.193644 0.337144
      vertex -0.437212 0.193336 0.336836
      vertex -0.437212 -0.193336 0.336836
    endloop
  endfacet
  facet normal -0.162904 0 0.986642
    outer loop
      vertex -0.437212 0.193336 0.336836
      vertex -0.439365 0.192981 0.336481
      vertex -0.437212 -0.193336 0.336836
    endloop
  endfacet
  facet normal -0.162904 0 0.986642
    outer loop
      vertex -0.437212 -0.193336 0.336836
      vertex -0.439365 0.192981 0.336481
      vertex -0.439365 -0.192981 0.336481
    endloop
  endfacet
  facet normal -0.184378 0 0.982855
    outer loop
      vertex -0.439365 -0.192981 0.336481
      vertex -0.439365 0.192981 0.336481
      vertex -0.441509 -0.192579 0.336079
    endloop
  endfacet
  facet normal -0.184378 0 0.982855
    outer loop
      vertex -0.439365 0.192981 0.336481
      vertex -0.441509 0.192579 0.336079
      vertex -0.441509 -0.192579 0.336079
    endloop
  endfacet
  facet normal -0.205772 0 0.9786
    outer loop
      vertex -0.441509 -0.192579 0.336079
      vertex -0.441509 0.192579 0.336079
      vertex -0.443644 -0.19213 0.33563
    endloop
  endfacet
  facet normal -0.205772 0 0.9786
    outer loop
      vertex -0.441509 0.192579 0.336079
      vertex -0.443644 0.19213 0.33563
      vertex -0.443644 -0.19213 0.33563
    endloop
  endfacet
  facet normal -0.22708 0 0.973876
    outer loop
      vertex -0.443644 0.19213 0.33563
      vertex -0.445769 0.191634 0.335134
      vertex -0.443644 -0.19213 0.33563
    endloop
  endfacet
  facet normal -0.22708 0 0.973876
    outer loop
      vertex -0.443644 -0.19213 0.33563
      vertex -0.445769 0.191634 0.335134
      vertex -0.445769 -0.191634 0.335134
    endloop
  endfacet
  facet normal -0.248269 0 0.968691
    outer loop
      vertex -0.445769 0.191634 0.335134
      vertex -0.447882 0.191093 0.334593
      vertex -0.445769 -0.191634 0.335134
    endloop
  endfacet
  facet normal -0.248269 0 0.968691
    outer loop
      vertex -0.445769 -0.191634 0.335134
      vertex -0.447882 0.191093 0.334593
      vertex -0.447882 -0.191093 0.334593
    endloop
  endfacet
  facet normal -0.269333 0 0.963047
    outer loop
      vertex -0.447882 0.191093 0.334593
      vertex -0.449983 0.190505 0.334005
      vertex -0.447882 -0.191093 0.334593
    endloop
  endfacet
  facet normal -0.269333 0 0.963047
    outer loop
      vertex -0.447882 -0.191093 0.334593
      vertex -0.449983 0.190505 0.334005
      vertex -0.449983 -0.190505 0.334005
    endloop
  endfacet
  facet normal -0.290288 0 0.956939
    outer loop
      vertex -0.449983 0.190505 0.334005
      vertex -0.452071 0.189872 0.333372
      vertex -0.449983 -0.190505 0.334005
    endloop
  endfacet
  facet normal -0.290288 0 0.956939
    outer loop
      vertex -0.449983 -0.190505 0.334005
      vertex -0.452071 0.189872 0.333372
      vertex -0.452071 -0.189872 0.333372
    endloop
  endfacet
  facet normal -0.311096 0 0.950378
    outer loop
      vertex -0.452071 0.189872 0.333372
      vertex -0.454144 0.189193 0.332693
      vertex -0.452071 -0.189872 0.333372
    endloop
  endfacet
  facet normal -0.311096 0 0.950378
    outer loop
      vertex -0.452071 -0.189872 0.333372
      vertex -0.454144 0.189193 0.332693
      vertex -0.454144 -0.189193 0.332693
    endloop
  endfacet
  facet normal -0.33175 0 0.943367
    outer loop
      vertex -0.454144 0.189193 0.332693
      vertex -0.456202 0.188469 0.331969
      vertex -0.454144 -0.189193 0.332693
    endloop
  endfacet
  facet normal -0.33175 0 0.943367
    outer loop
      vertex -0.454144 -0.189193 0.332693
      vertex -0.456202 0.188469 0.331969
      vertex -0.456202 -0.188469 0.331969
    endloop
  endfacet
  facet normal -0.352249 0 0.935906
    outer loop
      vertex -0.456202 -0.188469 0.331969
      vertex -0.456202 0.188469 0.331969
      vertex -0.458244 -0.187701 0.331201
    endloop
  endfacet
  facet normal -0.352249 0 0.935906
    outer loop
      vertex -0.456202 0.188469 0.331969
      vertex -0.458244 0.187701 0.331201
      vertex -0.458244 -0.187701 0.331201
    endloop
  endfacet
  facet normal -0.372582 0 0.927999
    outer loop
      vertex -0.458244 -0.187701 0.331201
      vertex -0.458244 0.187701 0.331201
      vertex -0.460268 -0.186888 0.330388
    endloop
  endfacet
  facet normal -0.372582 0 0.927999
    outer loop
      vertex -0.458244 0.187701 0.331201
      vertex -0.460268 0.186888 0.330388
      vertex -0.460268 -0.186888 0.330388
    endloop
  endfacet
  facet normal -0.392743 0 0.919648
    outer loop
      vertex -0.460268 0.186888 0.330388
      vertex -0.462275 0.186031 0.329531
      vertex -0.460268 -0.186888 0.330388
    endloop
  endfacet
  facet normal -0.392743 0 0.919648
    outer loop
      vertex -0.460268 -0.186888 0.330388
      vertex -0.462275 0.186031 0.329531
      vertex -0.462275 -0.186031 0.329531
    endloop
  endfacet
  facet normal -0.412702 0 0.910866
    outer loop
      vertex -0.462275 0.186031 0.329531
      vertex -0.464262 0.185131 0.328631
      vertex -0.462275 -0.186031 0.329531
    endloop
  endfacet
  facet normal -0.412702 0 0.910866
    outer loop
      vertex -0.462275 -0.186031 0.329531
      vertex -0.464262 0.185131 0.328631
      vertex -0.464262 -0.185131 0.328631
    endloop
  endfacet
  facet normal -0.432482 0 0.901643
    outer loop
      vertex -0.464262 0.185131 0.328631
      vertex -0.466229 0.184187 0.327687
      vertex -0.464262 -0.185131 0.328631
    endloop
  endfacet
  facet normal -0.432482 0 0.901643
    outer loop
      vertex -0.464262 -0.185131 0.328631
      vertex -0.466229 0.184187 0.327687
      vertex -0.466229 -0.184187 0.327687
    endloop
  endfacet
  facet normal -0.452043 0 0.891996
    outer loop
      vertex -0.466229 0.184187 0.327687
      vertex -0.468175 0.183201 0.326701
      vertex -0.466229 -0.184187 0.327687
    endloop
  endfacet
  facet normal -0.452043 0 0.891996
    outer loop
      vertex -0.466229 -0.184187 0.327687
      vertex -0.468175 0.183201 0.326701
      vertex -0.468175 -0.183201 0.326701
    endloop
  endfacet
  facet normal -0.471391 0 0.881924
    outer loop
      vertex -0.468175 0.183201 0.326701
      vertex -0.470099 0.182173 0.325673
      vertex -0.468175 -0.183201 0.326701
    endloop
  endfacet
  facet normal -0.471391 0 0.881924
    outer loop
      vertex -0.468175 -0.183201 0.326701
      vertex -0.470099 0.182173 0.325673
      vertex -0.470099 -0.182173 0.325673
    endloop
  endfacet
  facet normal -0.490526 0 0.871426
    outer loop
      vertex -0.470099 0.182173 0.325673
      vertex -0.472 0.181103 0.324603
      vertex -0.470099 -0.182173 0.325673
    endloop
  endfacet
  facet normal -0.490526 0 0.871426
    outer loop
      vertex -0.470099 -0.182173 0.325673
      vertex -0.472 0.181103 0.324603
      vertex -0.472 -0.181103 0.324603
    endloop
  endfacet
  facet normal -0.509416 0 0.86052
    outer loop
      vertex -0.472 -0.181103 0.324603
      vertex -0.472 0.181103 0.324603
      vertex -0.473877 -0.179991 0.323491
    endloop
  endfacet
  facet normal -0.509416 0 0.86052
    outer loop
      vertex -0.472 0.181103 0.324603
      vertex -0.473877 0.179991 0.323491
      vertex -0.473877 -0.179991 0.323491
    endloop
  endfacet
  facet normal -0.528067 0 0.849203
    outer loop
      vertex -0.473877 -0.179991 0.323491
      vertex -0.473877 0.179991 0.323491
      vertex -0.47573 -0.178839 0.322339
    endloop
  endfacet
  facet normal -0.528067 0 0.849203
    outer loop
      vertex -0.473877 0.179991 0.323491
      vertex -0.47573 0.178839 0.322339
      vertex -0.47573 -0.178839 0.322339
    endloop
  endfacet
  facet normal -0.546467 0 0.83748
    outer loop
      vertex -0.47573 -0.178839 0.322339
      vertex -0.47573 0.178839 0.322339
      vertex -0.477557 -0.177647 0.321147
    endloop
  endfacet
  facet normal -0.546467 0 0.83748
    outer loop
      vertex -0.47573 0.178839 0.322339
      vertex -0.477557 0.177647 0.321147
      vertex -0.477557 -0.177647 0.321147
    endloop
  endfacet
  facet normal -0.564613 0 0.825356
    outer loop
      vertex -0.477557 -0.177647 0.321147
      vertex -0.477557 0.177647 0.321147
      vertex -0.479358 -0.176415 0.319915
    endloop
  endfacet
  facet normal -0.564613 0 0.825356
    outer loop
      vertex -0.477557 0.177647 0.321147
      vertex -0.479358 0.176415 0.319915
      vertex -0.479358 -0.176415 0.319915
    endloop
  endfacet
  facet normal -0.582475 0 0.812848
    outer loop
      vertex -0.479358 -0.176415 0.319915
      vertex -0.479358 0.176415 0.319915
      vertex -0.481131 -0.175144 0.318644
    endloop
  endfacet
  facet normal -0.582475 0 0.812848
    outer loop
      vertex -0.479358 0.176415 0.319915
      vertex -0.481131 0.175144 0.318644
      vertex -0.481131 -0.175144 0.318644
    endloop
  endfacet
  facet normal -0.600068 0 0.799949
    outer loop
      vertex -0.481131 -0.175144 0.318644
      vertex -0.481131 0.175144 0.318644
      vertex -0.482876 -0.173835 0.317335
    endloop
  endfacet
  facet normal -0.600068 0 0.799949
    outer loop
      vertex -0.481131 0.175144 0.318644
      vertex -0.482876 0.173835 0.317335
      vertex -0.482876 -0.173835 0.317335
    endloop
  endfacet
  facet normal -0.617381 0 0.786664
    outer loop
      vertex -0.482876 -0.173835 0.317335
      vertex -0.482876 0.173835 0.317335
      vertex -0.484592 -0.172488 0.315988
    endloop
  endfacet
  facet normal -0.617381 0 0.786664
    outer loop
      vertex -0.482876 0.173835 0.317335
      vertex -0.484592 0.172488 0.315988
      vertex -0.484592 -0.172488 0.315988
    endloop
  endfacet
  facet normal -0.634395 0 0.773009
    outer loop
      vertex -0.484592 -0.172488 0.315988
      vertex -0.484592 0.172488 0.315988
      vertex -0.486279 -0.171104 0.314604
    endloop
  endfacet
  facet normal -0.634395 0 0.773009
    outer loop
      vertex -0.484592 0.172488 0.315988
      vertex -0.486279 0.171104 0.314604
      vertex -0.486279 -0.171104 0.314604
    endloop
  endfacet
  facet normal -0.659345 0 0.75184
    outer loop
      vertex -0.486279 0.171104 0.314604
      vertex -0.489559 0.168228 0.311728
      vertex -0.486279 -0.171104 0.314604
    endloop
  endfacet
  facet normal -0.659345 0 0.75184
    outer loop
      vertex -0.486279 -0.171104 0.314604
      vertex -0.489559 0.168228 0.311728
      vertex -0.489559 -0.168228 0.311728
    endloop
  endfacet
  facet normal -0.691515 0 0.722362
    outer loop
      vertex -0.489559 0.168228 0.311728
      vertex -0.492711 0.165211 0.308711
      vertex -0.489559 -0.168228 0.311728
    endloop
  endfacet
  facet normal -0.691515 0 0.722362
    outer loop
      vertex -0.489559 -0.168228 0.311728
      vertex -0.492711 0.165211 0.308711
      vertex -0.492711 -0.165211 0.308711
    endloop
  endfacet
  facet normal -0.722362 0 0.691515
    outer loop
      vertex -0.492711 0.165211 0.308711
      vertex -0.495728 0.162059 0.305559
      vertex -0.492711 -0.165211 0.308711
    endloop
  endfacet
  facet normal -0.722362 0 0.691515
    outer loop
      vertex -0.492711 -0.165211 0.308711
      vertex -0.495728 0.162059 0.305559
      vertex -0.495728 -0.162059 0.305559
    endloop
  endfacet
  facet normal -0.75184 0 0.659345
    outer loop
      vertex -0.495728 0.162059 0.305559
      vertex -0.498604 0.158779 0.302279
      vertex -0.495728 -0.162059 0.305559
    endloop
  endfacet
  facet normal -0.75184 0 0.659345
    outer loop
      vertex -0.495728 -0.162059 0.305559
      vertex -0.498604 0.158779 0.302279
      vertex -0.498604 -0.158779 0.302279
    endloop
  endfacet
  facet normal -0.779886 0 0.625921
    outer loop
      vertex -0.498604 0.158779 0.302279
      vertex -0.501335 0.155376 0.298876
      vertex -0.498604 -0.158779 0.302279
    endloop
  endfacet
  facet normal -0.779886 0 0.625921
    outer loop
      vertex -0.498604 -0.158779 0.302279
      vertex -0.501335 0.155376 0.298876
      vertex -0.501335 -0.155376 0.298876
    endloop
  endfacet
  facet normal -0.806444 0 0.59131
    outer loop
      vertex -0.501335 0.155376 0.298876
      vertex -0.503915 0.151858 0.295358
      vertex -0.501335 -0.155376 0.298876
    endloop
  endfacet
  facet normal -0.806444 0 0.59131
    outer loop
      vertex -0.501335 -0.155376 0.298876
      vertex -0.503915 0.151858 0.295358
      vertex -0.503915 -0.151858 0.295358
    endloop
  endfacet
  facet normal -0.83147 0 0.55557
    outer loop
      vertex -0.503915 0.151858 0.295358
      vertex -0.506339 0.14823 0.29173
      vertex -0.503915 -0.151858 0.295358
    endloop
  endfacet
  facet normal -0.83147 0 0.55557
    outer loop
      vertex -0.503915 -0.151858 0.295358
      vertex -0.506339 0.14823 0.29173
      vertex -0.506339 -0.14823 0.29173
    endloop
  endfacet
  facet normal -0.854909 0 0.518778
    outer loop
      vertex -0.506339 0.14823 0.29173
      vertex -0.508603 0.1445 0.288
      vertex -0.506339 -0.14823 0.29173
    endloop
  endfacet
  facet normal -0.854909 0 0.518778
    outer loop
      vertex -0.506339 -0.14823 0.29173
      vertex -0.508603 0.1445 0.288
      vertex -0.508603 -0.1445 0.288
    endloop
  endfacet
  facet normal -0.87673 0 0.480982
    outer loop
      vertex -0.508603 0.1445 0.288
      vertex -0.510701 0.140675 0.284175
      vertex -0.508603 -0.1445 0.288
    endloop
  endfacet
  facet normal -0.87673 0 0.480982
    outer loop
      vertex -0.508603 -0.1445 0.288
      vertex -0.510701 0.140675 0.284175
      vertex -0.510701 -0.140675 0.284175
    endloop
  endfacet
  facet normal -0.896873 0 0.442289
    outer loop
      vertex -0.510701 0.140675 0.284175
      vertex -0.512631 0.136762 0.280262
      vertex -0.510701 -0.140675 0.284175
    endloop
  endfacet
  facet normal -0.896873 0 0.442289
    outer loop
      vertex -0.510701 -0.140675 0.284175
      vertex -0.512631 0.136762 0.280262
      vertex -0.512631 -0.136762 0.280262
    endloop
  endfacet
  facet normal -0.915309 0 0.402753
    outer loop
      vertex -0.512631 0.136762 0.280262
      vertex -0.514388 0.132768 0.276268
      vertex -0.512631 -0.136762 0.280262
    endloop
  endfacet
  facet normal -0.915309 0 0.402753
    outer loop
      vertex -0.512631 -0.136762 0.280262
      vertex -0.514388 0.132768 0.276268
      vertex -0.514388 -0.132768 0.276268
    endloop
  endfacet
  facet normal -0.932007 0 0.362439
    outer loop
      vertex -0.514388 0.132768 0.276268
      vertex -0.515969 0.128702 0.272202
      vertex -0.514388 -0.132768 0.276268
    endloop
  endfacet
  facet normal -0.932007 0 0.362439
    outer loop
      vertex -0.514388 -0.132768 0.276268
      vertex -0.515969 0.128702 0.272202
      vertex -0.515969 -0.128702 0.272202
    endloop
  endfacet
  facet normal -0.94693 0 0.32144
    outer loop
      vertex -0.515969 0.128702 0.272202
      vertex -0.517372 0.124571 0.268071
      vertex -0.515969 -0.128702 0.272202
    endloop
  endfacet
  facet normal -0.94693 0 0.32144
    outer loop
      vertex -0.515969 -0.128702 0.272202
      vertex -0.517372 0.124571 0.268071
      vertex -0.517372 -0.124571 0.268071
    endloop
  endfacet
  facet normal -0.96005 0 0.279827
    outer loop
      vertex -0.517372 0.124571 0.268071
      vertex -0.518593 0.120382 0.263882
      vertex -0.517372 -0.124571 0.268071
    endloop
  endfacet
  facet normal -0.96005 0 0.279827
    outer loop
      vertex -0.517372 -0.124571 0.268071
      vertex -0.518593 0.120382 0.263882
      vertex -0.518593 -0.120382 0.263882
    endloop
  endfacet
  facet normal -0.971343 0 0.237684
    outer loop
      vertex -0.518593 0.120382 0.263882
      vertex -0.51963 0.116144 0.259644
      vertex -0.518593 -0.120382 0.263882
    endloop
  endfacet
  facet normal -0.971343 0 0.237684
    outer loop
      vertex -0.518593 -0.120382 0.263882
      vertex -0.51963 0.116144 0.259644
      vertex -0.51963 -0.116144 0.259644
    endloop
  endfacet
  facet normal -0.980786 0 0.195085
    outer loop
      vertex -0.51963 0.116144 0.259644
      vertex -0.520481 0.111865 0.255365
      vertex -0.51963 -0.116144 0.259644
    endloop
  endfacet
  facet normal -0.980786 0 0.195085
    outer loop
      vertex -0.51963 -0.116144 0.259644
      vertex -0.520481 0.111865 0.255365
      vertex -0.520481 -0.111865 0.255365
    endloop
  endfacet
  facet normal -0.98836 0 0.152134
    outer loop
      vertex -0.520481 0.111865 0.255365
      vertex -0.521145 0.107553 0.251053
      vertex -0.520481 -0.111865 0.255365
    endloop
  endfacet
  facet normal -0.98836 0 0.152134
    outer loop
      vertex -0.520481 -0.111865 0.255365
      vertex -0.521145 0.107553 0.251053
      vertex -0.521145 -0.107553 0.251053
    endloop
  endfacet
  facet normal -0.994056 0 0.108868
    outer loop
      vertex -0.521145 0.107553 0.251053
      vertex -0.521619 0.103216 0.246716
      vertex -0.521145 -0.107553 0.251053
    endloop
  endfacet
  facet normal -0.994056 0 0.108868
    outer loop
      vertex -0.521145 -0.107553 0.251053
      vertex -0.521619 0.103216 0.246716
      vertex -0.521619 -0.103216 0.246716
    endloop
  endfacet
  facet normal -0.997859 0 0.0653973
    outer loop
      vertex -0.521619 0.103216 0.246716
      vertex -0.521905 0.0988619 0.242362
      vertex -0.521619 -0.103216 0.246716
    endloop
  endfacet
  facet normal -0.997859 0 0.0653973
    outer loop
      vertex -0.521619 -0.103216 0.246716
      vertex -0.521905 0.0988619 0.242362
      vertex -0.521905 -0.0988619 0.242362
    endloop
  endfacet
  facet normal -0.999762 0 0.0218174
    outer loop
      vertex -0.521905 0.0988619 0.242362
      vertex -0.522 0.0945 0.238
      vertex -0.521905 -0.0988619 0.242362
    endloop
  endfacet
  facet normal -0.999762 0 0.0218174
    outer loop
      vertex -0.521905 -0.0988619 0.242362
      vertex -0.522 0.0945 0.238
      vertex -0.522 -0.0945 0.238
    endloop
  endfacet
endsolid Onshape
