solid Onshape
  facet normal 0 0 -1
    outer loop
      vertex 5 -2 0
      vertex -3 -2 0
      vertex 5 2 0
    endloop
  endfacet
  facet normal 0 0 -1
    outer loop
      vertex -3 -2 0
      vertex -3 2 0
      vertex 5 2 0
    endloop
  endfacet
  facet normal 0 0 1
    outer loop
      vertex -3 -2 2
      vertex 5 -2 2
      vertex -3 2 2
    endloop
  endfacet
  facet normal 0 0 1
    outer loop
      vertex 5 -2 2
      vertex 5 2 2
      vertex -3 2 2
    endloop
  endfacet
  facet normal 0 1 0
    outer loop
      vertex -3 2 2
      vertex 5 2 2
      vertex -3 2 0
    endloop
  endfacet
  facet normal 0 1 0
    outer loop
      vertex 5 2 2
      vertex 5 2 0
      vertex -3 2 0
    endloop
  endfacet
  facet normal -1 0 0
    outer loop
      vertex -3 -2 2
      vertex -3 2 2
      vertex -3 -2 0
    endloop
  endfacet
  facet normal -1 0 0
    outer loop
      vertex -3 2 2
      vertex -3 2 0
      vertex -3 -2 0
    endloop
  endfacet
  facet normal 0 -1 0
    outer loop
      vertex 5 -2 2
      vertex -3 -2 2
      vertex 5 -2 0
    endloop
  endfacet
  facet normal 0 -1 0
    outer loop
      vertex -3 -2 2
      vertex -3 -2 0
      vertex 5 -2 0
    endloop
  endfacet
  facet normal 1 0 0
    outer loop
      vertex 5 2 2
      vertex 5 -2 2
      vertex 5 2 0
    endloop
  endfacet
  facet normal 1 0 0
    outer loop
      vertex 5 -2 2
      vertex 5 -2 0
      vertex 5 2 0
    endloop
  endfacet
endsolid Onshape
