solid Onshape
 facet normal -0 -0 -1
  outer loop
   vertex 3.25 0.6 0
   vertex 3.25 -0.6 0
   vertex -1.75 0.6 0
  endloop
 endfacet
 facet normal 0 0 -1
  outer loop
   vertex 3.25 -0.6 0
   vertex -1.75 -0.6 0
   vertex -1.75 0.6 0
  endloop
 endfacet
 facet normal 0 -0 1
  outer loop
   vertex 3.25 -0.6 1
   vertex 3.25 0.6 1
   vertex -1.75 -0.6 1
  endloop
 endfacet
 facet normal 0 0 1
  outer loop
   vertex 3.25 0.6 1
   vertex -1.75 0.6 1
   vertex -1.75 -0.6 1
  endloop
 endfacet
 facet normal -1 0 0
  outer loop
   vertex -1.75 -0.6 1
   vertex -1.75 0.6 1
   vertex -1.75 -0.6 0
  endloop
 endfacet
 facet normal -1 0 -0
  outer loop
   vertex -1.75 0.6 1
   vertex -1.75 0.6 0
   vertex -1.75 -0.6 0
  endloop
 endfacet
 facet normal -0 1 0
  outer loop
   vertex -1.75 0.6 1
   vertex 3.25 0.6 1
   vertex -1.75 0.6 0
  endloop
 endfacet
 facet normal 0 1 0
  outer loop
   vertex 3.25 0.6 1
   vertex 3.25 0.6 0
   vertex -1.75 0.6 0
  endloop
 endfacet
 facet normal 1 0 0
  outer loop
   vertex 3.25 0.6 1
   vertex 3.25 -0.6 1
   vertex 3.25 0.6 0
  endloop
 endfacet
 facet normal 1 0 0
  outer loop
   vertex 3.25 -0.6 1
   vertex 3.25 -0.6 0
   vertex 3.25 0.6 0
  endloop
 endfacet
 facet normal -0 -1 -0
  outer loop
   vertex 3.25 -0.6 1
   vertex -1.75 -0.6 1
   vertex 3.25 -0.6 0
  endloop
 endfacet
 facet normal 0 -1 0
  outer loop
   vertex -1.75 -0.6 1
   vertex -1.75 -0.6 0
   vertex 3.25 -0.6 0
  endloop
 endfacet
endsolid Onshape
